<?xml version="1.0" encoding="utf-8"?>
<!-- Generator: Adobe Illustrator 27.5.0, SVG Export Plug-In . SVG Version: 6.00 Build 0)  -->
<svg version="1.1" xmlns="http://www.w3.org/2000/svg" xmlns:xlink="http://www.w3.org/1999/xlink" x="0px" y="0px"
	 viewBox="0 0 500 500" style="enable-background:new 0 0 500 500;" xml:space="preserve">
<g id="Floor">
	<path id="Floor_00000143598672855313685430000010386919255487072412_" style="fill:#F5F5F5;" d="M86.606,260.745
		c-90.237,52.099-90.235,136.568,0.005,188.667c90.24,52.099,236.546,52.099,326.783,0c90.237-52.099,90.235-136.568-0.005-188.667
		S176.843,208.646,86.606,260.745z"/>
</g>
<g id="Clouds">
	<g id="Clouds_00000095328101331131615420000005093447168978946218_">
		<path id="XMLID_00000101103169469053446060000008085802502844052910_" style="fill:#F5F5F5;" d="M57.538,51.015l11.303,0
			c-0.056-0.354-0.095-0.713-0.095-1.081v-2.456c0-4.37,4.091-7.913,9.138-7.913c2.043,0,3.924,0.588,5.446,1.57
			c0.826-5.853,6.575-10.39,13.557-10.39c7.55,0,13.67,5.3,13.67,11.839v3.674c0,1.693-0.418,3.301-1.157,4.757h9.388
			c2.799,0,5.069,1.965,5.069,4.389c0,2.424-2.269,4.389-5.069,4.389H57.538c-2.799,0-5.069-1.965-5.069-4.389
			C52.47,52.981,54.739,51.015,57.538,51.015z"/>
		<path id="XMLID_00000181057627289123066200000008189804280017013120_" style="fill:#F5F5F5;" d="M75.432,95.101l-8.129,0
			c0.04-0.255,0.068-0.513,0.068-0.778v-1.766c0-3.143-2.942-5.691-6.572-5.691c-1.47,0-2.822,0.423-3.917,1.129
			c-0.594-4.21-4.729-7.473-9.751-7.473c-5.43,0-9.832,3.812-9.832,8.515v2.643c0,1.218,0.301,2.374,0.833,3.422l-6.753,0
			c-2.013,0-3.645,1.414-3.645,3.157c0,1.744,1.632,3.157,3.645,3.157h44.053c2.013,0,3.645-1.413,3.645-3.157
			C79.077,96.514,77.445,95.101,75.432,95.101z"/>
	</g>
	<g id="Clouds_00000130626232163855984250000016553702895681017485_">
		<path id="XMLID_00000051380457435905822860000007744044070997459107_" style="fill:#F5F5F5;" d="M401.663,110.747l11.303,0
			c-0.056-0.354-0.095-0.713-0.095-1.081v-2.456c0-4.37,4.091-7.913,9.138-7.913c2.043,0,3.924,0.588,5.446,1.57
			c0.826-5.853,6.575-10.39,13.557-10.39c7.55,0,13.67,5.3,13.67,11.839v3.674c0,1.694-0.418,3.301-1.157,4.757l9.388,0
			c2.799,0,5.068,1.965,5.068,4.389s-2.269,4.389-5.068,4.389l-61.249,0c-2.799,0-5.069-1.965-5.069-4.39
			C396.594,112.712,398.864,110.747,401.663,110.747z"/>
		<path id="XMLID_00000165217139515177993840000005839333922068792192_" style="fill:#F5F5F5;" d="M462.698,62.744l-8.129,0
			c0.04-0.255,0.068-0.513,0.068-0.778V60.2c0-3.143-2.942-5.691-6.572-5.691c-1.47,0-2.822,0.423-3.917,1.129
			c-0.595-4.21-4.729-7.473-9.751-7.473c-5.43,0-9.832,3.812-9.832,8.515v2.642c0,1.218,0.3,2.374,0.833,3.422l-6.753,0
			c-2.013,0-3.645,1.414-3.645,3.157c0,1.744,1.632,3.157,3.645,3.157h44.053c2.013,0,3.645-1.413,3.645-3.157
			C466.344,64.158,464.712,62.744,462.698,62.744z"/>
		<path id="XMLID_00000113350682001719385360000007353612267771101628_" style="fill:#F5F5F5;" d="M369.657,53.698l-6.656,0
			c0.054-0.341,0.091-0.687,0.091-1.041v-2.365c0-4.209-3.939-7.62-8.799-7.62c-1.968,0-3.779,0.566-5.245,1.511
			c-0.796-5.637-6.332-10.005-13.056-10.005c-7.271,0-13.165,5.104-13.165,11.401v3.538c0,1.631,0.402,3.179,1.115,4.582l-4.628,0
			c-2.696,0-4.881,1.893-4.881,4.227c0,2.335,2.185,4.227,4.881,4.227l50.342,0c2.696,0,4.881-1.893,4.881-4.227
			C374.538,55.591,372.353,53.698,369.657,53.698z"/>
	</g>
</g>
<g id="Plants">
	<g id="Plants_00000093139337078162037090000004091120427609318322_">
		<path style="fill:#BA68C8;" d="M34.173,348.775c0.296-1.177,0.188-3.299-1.782-4.942c-1.97-1.643-4.639-2.317-4.9-2.155
			c-0.261,0.162,0.004,2.88,2.056,5.074C31.556,348.899,33.432,348.727,34.173,348.775z"/>
		<path style="fill:#BA68C8;" d="M35.335,355.028c-0.276-1.182-1.343-3.021-3.848-3.586c-2.505-0.565-5.188,0.049-5.347,0.312
			c-0.158,0.263,1.322,2.56,4.152,3.579C33.064,356.329,34.655,355.323,35.335,355.028z"/>
		<path style="fill:#BA68C8;" d="M40.144,355.974c1.121-0.475,2.752-1.841,2.877-4.399c0.125-2.558-0.713-4.925-1-5.035
			c-0.287-0.11-2.557,1.908-3.206,4.523C38.108,353.913,39.735,355.356,40.144,355.974z"/>
		<path style="fill:#37474F;" d="M42.916,377.588c0.563-2.234,0.399-4.632,0.165-6.903c-0.221-2.134-0.631-4.247-1.203-6.315
			c-1.184-4.286-2.959-8.476-5.24-12.298c-1.454-2.436-3.098-4.972-5.274-6.827c-0.047-0.04-0.169,0.051-0.129,0.099
			c2.209,2.728,3.046,4.277,4.325,6.521c1.11,1.947,2.201,3.957,3.107,6.274c1.592,4.069,2.454,7.469,3.023,11.49
			c0.37,2.612,0.303,5.222,0.367,7.851C42.071,378.044,42.775,378.151,42.916,377.588z"/>
		<path style="fill:#37474F;" d="M39.635,357.99c0.547-1.041,0.93-2.121,1.233-3.254c0.28-1.048,0.478-2.219,0.337-3.301
			c-0.02-0.154-0.14,0.049-0.157,0.145c-0.169,1-0.412,1.915-0.696,2.892c-0.293,1.009-0.79,1.962-1.353,2.848
			c-0.142,0.223-0.152,0.604,0.043,0.801C39.234,358.312,39.518,358.213,39.635,357.99z"/>
		<path style="fill:#37474F;" d="M39.381,357.639c-1.038-1.26-2.19-2.003-3.844-2.955c-0.699-0.402-1.263-0.653-2.012-0.952
			c-0.748-0.299-2.076-0.628-2.566-0.597c-0.035,0.002-0.239,0.074-0.176,0.092c0.686,0.201,1.699,0.594,2.416,0.908
			c0.879,0.385,1.401,0.672,2.074,1.103c1.557,0.997,2.539,1.775,3.681,2.888C39.189,358.355,39.56,357.856,39.381,357.639z"/>
		<path style="fill:#BA68C8;" d="M38.874,363.839c-0.022-1.214-0.681-3.233-3.013-4.308c-2.332-1.074-5.084-1.031-5.294-0.807
			c-0.21,0.224,0.757,2.779,3.312,4.364C36.38,364.64,38.146,363.986,38.874,363.839z"/>
		<path style="fill:#37474F;" d="M42.284,367.234c-0.752-1.449-1.723-2.414-3.142-3.689c-0.599-0.539-1.099-0.902-1.768-1.35
			c-0.669-0.448-1.899-1.046-2.385-1.118c-0.034-0.005-0.25,0.022-0.191,0.054c0.629,0.339,1.537,0.934,2.172,1.39
			c0.779,0.559,1.229,0.948,1.798,1.51c1.314,1.299,2.112,2.264,2.996,3.591C41.946,367.895,42.414,367.484,42.284,367.234z"/>
	</g>
	<g id="Plants_00000109732382857485680540000012654371575770842033_">
		<path style="fill:#BA68C8;" d="M50.624,336.957c-0.545-1.201-0.841-3.489,0.945-5.625c1.787-2.136,4.508-3.372,4.819-3.249
			c0.31,0.123,0.554,3.079-1.213,5.819C53.444,336.586,51.406,336.764,50.624,336.957z"/>
		<path style="fill:#BA68C8;" d="M50.595,343.865c0.065-1.317,0.849-3.487,3.417-4.575c2.568-1.088,5.555-0.948,5.774-0.698
			c0.22,0.251-0.916,2.992-3.743,4.626C53.275,344.817,51.38,344.049,50.595,343.865z"/>
		<path style="fill:#BA68C8;" d="M45.639,345.803c-1.29-0.292-3.298-1.437-3.929-4.147c-0.63-2.71-0.194-5.401,0.092-5.574
			c0.286-0.173,3.103,1.546,4.304,4.216C47.415,343.209,45.957,345.065,45.639,345.803z"/>
		<path style="fill:#37474F;" d="M46.871,369.439c-1.035-2.279-1.326-4.873-1.516-7.346c-0.179-2.324-0.15-4.661,0.06-6.981
			c0.434-4.809,1.517-9.63,3.213-14.155c1.081-2.884,2.346-5.911,4.312-8.314c0.042-0.052,0.19,0.022,0.157,0.081
			c-1.832,3.342-2.425,5.159-3.357,7.803c-0.808,2.295-1.584,4.654-2.103,7.305c-0.912,4.656-1.173,8.456-1,12.863
			c0.112,2.863,0.69,5.639,1.131,8.461C47.863,369.762,47.132,370.013,46.871,369.439z"/>
		<path style="fill:#37474F;" d="M46.575,347.86c-0.787-1.007-1.406-2.087-1.95-3.24c-0.503-1.066-0.941-2.28-1.001-3.463
			c-0.008-0.168,0.159,0.025,0.195,0.125c0.375,1.036,0.812,1.967,1.305,2.956c0.509,1.022,1.225,1.945,1.998,2.783
			c0.195,0.211,0.28,0.616,0.109,0.864C47.066,348.127,46.743,348.075,46.575,347.86z"/>
		<path style="fill:#37474F;" d="M46.778,347.435c0.865-1.548,1.952-2.563,3.535-3.899c0.668-0.565,1.223-0.942,1.965-1.406
			c0.742-0.464,2.097-1.072,2.626-1.133c0.037-0.004,0.27,0.033,0.206,0.065c-0.694,0.347-1.701,0.963-2.405,1.436
			c-0.865,0.581-1.366,0.988-2.003,1.579c-1.47,1.366-2.369,2.386-3.374,3.797C47.122,348.164,46.628,347.703,46.778,347.435z"/>
		<path style="fill:#BA68C8;" d="M48.523,353.965c-0.212-1.301,0.1-3.587,2.384-5.185c2.284-1.598,5.234-2.083,5.501-1.884
			c0.268,0.199-0.27,3.116-2.693,5.303C51.344,354.339,49.329,353.982,48.523,353.965z"/>
		<path style="fill:#37474F;" d="M45.537,358.251c0.522-1.693,1.373-2.912,2.641-4.549c0.536-0.691,0.999-1.176,1.628-1.783
			c0.629-0.608,1.827-1.484,2.332-1.655c0.036-0.012,0.271-0.024,0.215,0.021c-0.606,0.484-1.462,1.295-2.052,1.905
			c-0.725,0.748-1.13,1.251-1.628,1.961c-1.152,1.641-1.818,2.827-2.505,4.415C46.027,358.892,45.447,358.543,45.537,358.251z"/>
	</g>
	<g id="Plants_00000098929424307535720360000006071002857172654244_">
		<path style="fill:#BA68C8;" d="M467.082,348.775c-0.296-1.177-0.188-3.299,1.782-4.942c1.97-1.643,4.639-2.317,4.9-2.155
			c0.261,0.162-0.004,2.88-2.056,5.074C469.699,348.899,467.822,348.727,467.082,348.775z"/>
		<path style="fill:#BA68C8;" d="M465.919,355.028c0.276-1.182,1.343-3.021,3.848-3.586c2.505-0.565,5.188,0.049,5.346,0.312
			c0.158,0.263-1.322,2.56-4.152,3.579C468.191,356.329,466.6,355.323,465.919,355.028z"/>
		<path style="fill:#BA68C8;" d="M461.11,355.974c-1.12-0.475-2.752-1.841-2.877-4.399c-0.125-2.558,0.713-4.925,1-5.035
			c0.287-0.11,2.557,1.908,3.206,4.523C463.146,353.913,461.52,355.356,461.11,355.974z"/>
		<path style="fill:#37474F;" d="M458.338,377.588c-0.563-2.234-0.399-4.632-0.165-6.903c0.221-2.134,0.631-4.247,1.203-6.315
			c1.184-4.286,2.959-8.476,5.24-12.298c1.454-2.436,3.098-4.972,5.274-6.827c0.047-0.04,0.169,0.051,0.129,0.099
			c-2.209,2.728-3.046,4.277-4.325,6.521c-1.11,1.947-2.201,3.957-3.107,6.274c-1.592,4.069-2.454,7.469-3.023,11.49
			c-0.37,2.612-0.303,5.222-0.367,7.851C459.184,378.044,458.48,378.151,458.338,377.588z"/>
		<path style="fill:#37474F;" d="M461.62,357.99c-0.547-1.041-0.93-2.121-1.233-3.254c-0.28-1.048-0.478-2.219-0.337-3.301
			c0.02-0.154,0.14,0.049,0.157,0.145c0.169,1,0.412,1.915,0.696,2.892c0.293,1.009,0.79,1.962,1.353,2.848
			c0.142,0.223,0.152,0.604-0.043,0.801C462.021,358.312,461.736,358.213,461.62,357.99z"/>
		<path style="fill:#37474F;" d="M461.873,357.639c1.038-1.26,2.19-2.003,3.844-2.955c0.699-0.402,1.263-0.653,2.012-0.952
			c0.748-0.299,2.076-0.628,2.566-0.597c0.035,0.002,0.239,0.074,0.176,0.092c-0.686,0.201-1.699,0.594-2.415,0.908
			c-0.879,0.385-1.401,0.672-2.074,1.103c-1.557,0.997-2.539,1.775-3.681,2.888C462.066,358.355,461.694,357.856,461.873,357.639z"
			/>
		<path style="fill:#BA68C8;" d="M462.381,363.839c0.022-1.214,0.681-3.233,3.013-4.308s5.084-1.031,5.294-0.807
			c0.21,0.224-0.757,2.779-3.312,4.364C464.875,364.64,463.108,363.986,462.381,363.839z"/>
		<path style="fill:#37474F;" d="M458.97,367.234c0.752-1.449,1.723-2.414,3.142-3.689c0.599-0.539,1.099-0.902,1.768-1.35
			c0.67-0.448,1.899-1.046,2.385-1.118c0.034-0.005,0.25,0.022,0.191,0.054c-0.629,0.339-1.538,0.934-2.172,1.39
			c-0.78,0.559-1.229,0.948-1.798,1.51c-1.314,1.299-2.111,2.264-2.996,3.591C459.308,367.895,458.841,367.484,458.97,367.234z"/>
	</g>
	<g id="Plants_00000160172722574768069460000018325856153133317272_">
		<path style="fill:#BA68C8;" d="M452.631,336.957c0.545-1.201,0.841-3.489-0.945-5.625c-1.787-2.136-4.508-3.372-4.818-3.249
			c-0.311,0.123-0.554,3.079,1.213,5.819C449.81,336.586,451.849,336.764,452.631,336.957z"/>
		<path style="fill:#BA68C8;" d="M452.659,343.865c-0.065-1.317-0.849-3.487-3.416-4.575c-2.568-1.088-5.555-0.948-5.775-0.698
			c-0.22,0.251,0.916,2.992,3.743,4.626C449.979,344.817,451.875,344.049,452.659,343.865z"/>
		<path style="fill:#BA68C8;" d="M457.616,345.803c1.29-0.292,3.298-1.437,3.928-4.147c0.63-2.71,0.194-5.401-0.092-5.574
			c-0.286-0.173-3.103,1.546-4.304,4.216C455.84,343.209,457.298,345.065,457.616,345.803z"/>
		<path style="fill:#37474F;" d="M456.383,369.439c1.035-2.279,1.326-4.873,1.516-7.346c0.178-2.324,0.15-4.661-0.06-6.981
			c-0.434-4.809-1.517-9.63-3.213-14.155c-1.081-2.884-2.346-5.911-4.312-8.314c-0.042-0.052-0.19,0.022-0.157,0.081
			c1.832,3.342,2.425,5.159,3.357,7.803c0.808,2.295,1.584,4.654,2.103,7.305c0.912,4.656,1.173,8.456,1,12.863
			c-0.112,2.863-0.689,5.639-1.131,8.461C455.391,369.762,456.122,370.013,456.383,369.439z"/>
		<path style="fill:#37474F;" d="M456.68,347.86c0.787-1.007,1.406-2.087,1.95-3.24c0.503-1.066,0.941-2.28,1.001-3.463
			c0.008-0.168-0.159,0.025-0.196,0.125c-0.375,1.036-0.812,1.967-1.305,2.956c-0.509,1.022-1.225,1.945-1.998,2.783
			c-0.195,0.211-0.28,0.616-0.109,0.864C456.189,348.127,456.512,348.075,456.68,347.86z"/>
		<path style="fill:#37474F;" d="M456.477,347.435c-0.865-1.548-1.952-2.563-3.535-3.899c-0.669-0.565-1.224-0.942-1.966-1.406
			c-0.742-0.464-2.097-1.072-2.626-1.133c-0.037-0.004-0.27,0.033-0.206,0.065c0.694,0.347,1.701,0.963,2.406,1.436
			c0.865,0.581,1.366,0.988,2.003,1.579c1.47,1.366,2.369,2.386,3.374,3.797C456.132,348.164,456.626,347.703,456.477,347.435z"/>
		<path style="fill:#BA68C8;" d="M454.731,353.965c0.212-1.301-0.1-3.587-2.384-5.185c-2.284-1.598-5.234-2.083-5.501-1.884
			c-0.268,0.199,0.27,3.116,2.693,5.303C451.91,354.339,453.925,353.982,454.731,353.965z"/>
		<path style="fill:#37474F;" d="M457.717,358.251c-0.522-1.693-1.373-2.912-2.641-4.549c-0.536-0.691-0.999-1.176-1.628-1.783
			c-0.628-0.608-1.827-1.484-2.332-1.655c-0.036-0.012-0.271-0.024-0.215,0.021c0.606,0.484,1.462,1.295,2.052,1.905
			c0.725,0.748,1.13,1.251,1.628,1.961c1.152,1.641,1.818,2.827,2.505,4.415C457.228,358.892,457.807,358.543,457.717,358.251z"/>
	</g>
</g>
<g id="Shadows">
	
		<ellipse id="Shadow_00000157996283174683409270000016405505137525331593_" style="fill:#E0E0E0;" cx="241.577" cy="433.198" rx="53.712" ry="31.01"/>
	
		<ellipse id="Shadow_00000114759955152919159700000001575149256441201055_" style="fill:#E0E0E0;" cx="409.44" cy="383.276" rx="53.712" ry="31.01"/>
	
		<ellipse id="Shadow_00000178887427386398805790000003544599476138811327_" style="fill:#E0E0E0;" cx="91.112" cy="383.276" rx="53.712" ry="31.01"/>
</g>
<g id="Character_3">
	<g id="Character_7_">
		<g id="Bottom_00000118372097195696232800000016065906636923793806_">
			<g>
				<path style="fill:#263238;" d="M431.661,396.03c0.344,3.396,0.929,5.725,2.263,7.67c1.333,1.945,3.721,2.476,6.09,1.794
					c2.369-0.682,4.877-2.508,5.936-5.333c0.896-2.392,0.884-4.993,0.212-8.127L431.661,396.03z"/>
				<path id="XMLID_376_" style="fill:#37474F;" d="M441.391,373.427c0.551,2.26,0.822,3.808,1.573,6.909
					c1.165,4.808,2.41,6.847,3.118,10.847c0.809,4.57,0.338,6.789-1.453,9.501c-1.788,2.707-7.355,5.812-10.429,1.952
					c-2.506-3.148-2.751-6.741-2.721-11.337c0.031-4.752-0.443-8.022-0.79-11.614c-0.002-0.024-0.005-0.047-0.007-0.071
					c-0.122-1.228-0.319-3.652-0.499-4.873c-0.396-2.688,1.443-2.987,2.154-3.375c0.998-0.543,2.072-0.959,3.194-1.157
					c1.138-0.201,2.304-0.061,3.442,0.155C440.258,370.607,440.863,371.261,441.391,373.427z"/>
			</g>
			<g>
				<path style="fill:#263238;" d="M365.318,381.744c-0.214,0.007-0.469,2.288,0.72,3.218c1.373,1.074,5.36,2.785,10.538,1.979
					c5.178-0.806,7.946-2.442,9.976-4.184c2.03-1.742,4.875-4.197,7.211-4.769c2.17-0.531,5.016-1.721,5.695-2.393
					c0.679-0.672,0.497-3.564,0.497-3.564L365.318,381.744z"/>
				<path id="XMLID_00000160905275751605527570000008848594522981303477_" style="fill:#37474F;" d="M397.496,362.711
					c0.244,0.003,0.481,0.04,0.692,0.159c0.573,0.321,0.704,1.074,0.772,1.728c0.059,0.563,0.051,1.172,0.255,1.704
					c0.673,1.76,1.128,4.872,0.672,6.729c-0.361,1.469-4.274,2.794-6.524,3.699c-2.298,0.924-4.934,2.765-7.238,4.713
					c-2.384,2.016-7.464,4.12-10.85,4.271c-5.169,0.23-8.557-1.021-9.644-2.782c-1.345-2.179-0.38-3.494,5.484-6.33
					c1.11-0.537,4.995-2.912,6.317-3.77c1.397-0.907,2.733-1.909,3.958-3.025c0.62-0.565,1.211-1.159,1.763-1.786
					c0.834-0.947,1.884-1.7,2.855-2.508c0.705-0.587,1.415-1.177,2.213-1.632c1.288-0.733,2.756-1.076,4.225-1.175
					c1.5-0.102,2.924,0.199,4.425,0.048C397.074,362.732,397.287,362.708,397.496,362.711z"/>
			</g>
			<g>
				<path style="fill:#B16668;" d="M440.784,372.237c-1.154-9.909-0.358-20.887-1.848-36.372v0
					c-0.238-3.975-0.561-8.23-0.991-12.005c-1.449-12.7-3.662-16.972-3.951-19.423c0,0-0.133-25.012-2.13-52.849
					c-0.939-13.095-5.04-16.905-8.472-23.737l-38.988,1.53c-3.482,17.343-2.683,56.482-1.838,74.176
					c0.431,9.021,2.786,41.401,2.908,56.084c0.036,4.306-0.833,5.859-2.367,7.581c-3.212,3.605-7.34,6.176-11.271,8.993
					c-1.083,2.358,4.409,3.723,8.993,1.212c3.877-2.125,8.335-4.724,9.658-5.753c3.352-2.605,6.963-4.365,7.639-8.058
					c0.275-1.502,7.32-35.961,7.456-43.472c0.117-6.458-1.141-17.358-1.141-17.358l3.2-27.465c0,0,4.286,20.924,6.84,31.98
					c2.553,11.05,5.37,24.181,8.282,35.115l0,0c2.882,12.614,6.777,24.833,7.637,31.171c0.243,1.511,2.633,16.35,3.509,19.735
					c0.875,3.385,8.598,3.161,8.854-2.733C442.934,386.667,441.001,374.102,440.784,372.237z"/>
			</g>
			<g>
				<g>
					<path style="fill:#455A64;" d="M424.494,228.091c4.75,7.616,8.298,13.853,9.689,37.015c1.392,23.161,1.26,37.24,1.468,40.031
						c0.208,2.791,1.693,4.834,3.734,18.543c2.041,13.708,1.042,30.396,1.042,30.396s-1.311,2.556-6.751,3.25
						c-5.019,0.64-7.587-1.081-7.587-1.081s-6.826-25.397-9.074-34.831c-1.974-8.285-9.054-40.38-9.054-40.38l-2.394,22.25
						c0,0,2.057,8.105,0.43,20.264c-1.616,12.08-4.333,24.081-4.333,24.081s-2.509,0.863-7.826,1.016
						c-4.311,0.125-9.091-1.682-9.091-1.682s-2.575-35.017-3.132-48.703c-0.557-13.685-1.646-51.708,2.678-68.27L424.494,228.091z"
						/>
				</g>
				<path style="fill:#B16668;" d="M430.713,305.255c0,0-2.88-2.676-8.178-1.84c-5.298,0.836-7.344,3.945-7.344,3.945
					C420.793,304.65,430.713,305.255,430.713,305.255z M418.284,308.227c3.157,0.475,6.3,0.614,13.11-0.972
					C428.107,306.623,418.284,308.227,418.284,308.227z"/>
				<g>
					<path style="fill:#B16668;" d="M381.706,300.316c0.023,0.481,0.047,0.979,0.073,1.494c1.337-0.145,7.404-0.727,13.541-0.086
						C393.357,300.735,386.283,299.637,381.706,300.316z"/>
					<path style="fill:#B16668;" d="M381.881,303.748c0.025,0.454,0.049,0.916,0.076,1.389c1.076-0.101,7.402-0.722,10.177-1.562
						C387.508,303.415,382.906,303.683,381.881,303.748z"/>
				</g>
				<g>
					<path style="fill:#37474F;" d="M434.255,309.893c-1.65-6.346-1.675-18.558-2.085-29.162c-0.124-3.204-0.252-6.517-0.427-10.036
						c-0.687-13.803-2.419-29.217-10.066-38.892l-0.567,0.418c5.14,6.505,7.566,15.695,8.806,25.232
						c-7.223-0.627-9.075-7.409-11.601-16.747c-0.346-1.276-0.703-2.597-1.087-3.951l-0.689,0.183
						c0.384,1.352,0.74,2.669,1.085,3.943c2.521,9.319,4.522,16.7,12.379,17.282c0.52,4.2,0.822,8.454,1.026,12.567
						c0.175,3.516,0.303,6.827,0.427,10.029c0.411,10.644,0.436,22.888,2.105,29.304c0.186,0.715,0.387,1.465,0.598,2.253
						c2.197,8.202,4.764,21.878,4.259,43.551c0.273-0.157,0.517-0.314,0.726-0.468c0.449-21.472-2.104-35.079-4.294-43.257
						C434.64,311.355,434.44,310.608,434.255,309.893z"/>
					<path style="fill:#37474F;" d="M407.961,281.033l-5.566-26.134c0,0-9.516-0.268-15.006-5.373
						c1.188,4.514,8.881,8.042,12.335,8.694l1.055,4.599c-0.068,2.471-0.146,5.065-0.226,7.744
						c-0.443,14.765-0.76,29.999,0.018,33.435c1.51,6.662,1.107,13.068,0.241,21.779c-0.781,7.859-2.131,17.6-2.975,22.583
						c0.25-0.03,0.489-0.06,0.714-0.092c0.851-4.937,1.965-13.619,3.067-22.454c1.11-8.91,1.397-15-0.357-21.992
						c-0.833-3.322-0.417-19.21,0.005-33.241c0.051-1.702,0.101-3.368,0.149-4.993l3.715,16.194l0.439,21.5L407.961,281.033z"/>
				</g>
			</g>
		</g>
		<g id="Top_1_">
			<g>
				<g>
					<path style="fill:#B16668;" d="M334.608,190.375c-0.45-1.74-0.735-3.522-0.849-5.315c-0.06-0.95-0.085-1.911-0.036-2.862
						c0.062-1.226,0.317-0.704,1.217-1.091c0.256-0.11,0.371-0.413,0.389-0.69c0.018-0.278-0.034-0.559,0.01-0.833
						c0.065-0.407,0.355-0.771,0.738-0.926c0.205-0.083,0.438-0.112,0.61-0.25c0.375-0.3,0.257-0.898,0.453-1.336
						c0.245-0.547,0.991-0.739,1.541-0.501c0.55,0.237,0.905,0.797,1.057,1.376c0.031,0.118,0.057,0.244,0.137,0.337
						c0.146,0.172,0.404,0.172,0.628,0.201c0.697,0.092,1.282,0.604,1.639,1.209c0.898,1.522,0.732,3.455,1.126,5.133
						c0.274,1.169,0.762,2.226,1.476,3.185c0.108,0.145,0.254,0.306,0.432,0.276c0.194-0.033,0.272-0.266,0.299-0.46
						c0.253-1.839-0.669-3.778-0.04-5.524c0.219-0.608,0.613-1.137,1.037-1.624c0.09-0.104,0.186-0.209,0.314-0.26
						c0.291-0.118,0.627,0.105,0.758,0.39c0.215,0.469,0.18,1.159,0.288,1.675c0.3,1.425,0.644,2.736,1.18,4.089
						c0.461,1.163,0.762,2.374,0.954,3.609c0.158,1.017-0.094,2.414,0.307,3.355c0.095,0.224,0.261,0.409,0.424,0.589
						c1.413,1.566,9.014,7.949,11.314,9.683c1.651,1.244,3.309,2.479,4.982,3.693c0,0,6.218-7.735,9.729-11.642
						c8.127-9.045,9.366-10.771,16.402-10.152l-6.316,22.216c0,0-6.687,6.356-13.766,12.596c-4.162,3.669-7.178,4.222-13.237-2.062
						c-3.513-3.643-11.111-12.121-12.82-13.962c-1.571-1.692-3.547-2.802-5.268-4.285c-2.497-2.151-5.323-4.419-6.434-7.606
						C335.028,191.871,334.803,191.127,334.608,190.375z"/>
				</g>
				<path style="fill:#263238;" d="M393.304,185.353c-4.555,0.115-7.763-0.15-12.014,4.646c-3.176,3.583-4.368,5.079-4.368,5.079
					s-0.846,4.619,2.35,9.584c2.341,3.636,5.414,5.642,5.414,5.642l3.266-2.945L393.304,185.353z"/>
			</g>
			<g>
				<path style="fill:#263238;" d="M430.66,239.964c-2.788-8.599-5.631-12.684-5.161-16.695c0.723-6.172,3.23-13.941,3.406-18.208
					c0.626-15.161-2.306-16.678-5.001-17.841c0,0-4.856-1.05-7.518-1.684c-1.6-0.381-4.787-0.818-4.787-0.818
					c-2.452-0.083-7.429-0.009-9.452,0.196c-0.997,0.101-2.791,0.02-2.791,0.02s-6.204,0.43-6.209,0.433
					c0,0-4.669,3.91-9.306,10.187c-4.728,6.4-6.542,14.028,0.304,19.711c0,0,0.322,5.976,0.263,8.652
					c-0.278,3.842-1.551,10.746-2.162,18.698C392.765,252.348,418.83,250.066,430.66,239.964z"/>
			</g>
			<g id="_x34__00000115481170762635119970000004691509338863442602_">
				<polygon style="fill:#BA68C8;" points="406.062,204.679 394.66,194.84 403.342,149.283 386.486,134.738 373.355,139.314 
					367.276,171.212 354.537,160.219 400.458,86.133 382.338,70.497 369.207,75.073 320.097,153.837 316.741,171.445 
					360.101,208.859 355.076,235.223 371.932,249.767 385.064,245.192 387.485,232.488 388.359,233.242 401.491,228.667 				"/>
				<polygon style="opacity:0.3;" points="406.062,204.679 394.66,194.84 403.342,149.283 386.486,134.738 373.355,139.314 
					367.276,171.212 354.537,160.219 400.458,86.133 382.338,70.497 369.207,75.073 320.097,153.837 316.741,171.445 
					360.101,208.859 355.076,235.223 371.932,249.767 385.064,245.192 387.485,232.488 388.359,233.242 401.491,228.667 				"/>
				<g id="_x34__00000142136102927938002320000003860845869607581085_">
					<g>
						<polygon style="fill:#BA68C8;" points="381.528,199.415 390.211,153.858 373.355,139.314 364.673,184.871 341.405,164.794 
							387.327,90.708 369.207,75.073 320.096,153.837 316.741,171.445 360.101,208.859 355.077,235.223 371.932,249.767 
							376.957,223.403 388.359,233.242 392.931,209.255 						"/>
						<polygon style="opacity:0.3;fill:#FFFFFF;" points="381.528,199.415 390.211,153.858 373.355,139.314 364.673,184.871 
							341.405,164.794 387.327,90.708 369.207,75.073 320.096,153.837 316.741,171.445 360.101,208.859 355.077,235.223 
							371.932,249.767 376.957,223.403 388.359,233.242 392.931,209.255 						"/>
					</g>
				</g>
				<polygon style="fill:#BA68C8;" points="369.207,75.073 387.327,90.708 400.458,86.133 382.338,70.497 				"/>
				<polygon style="opacity:0.5;fill:#FFFFFF;" points="369.207,75.073 387.327,90.708 400.458,86.133 382.338,70.497 				"/>
				<polygon style="fill:#BA68C8;" points="373.355,139.314 386.486,134.738 403.342,149.283 390.211,153.858 				"/>
				<polygon style="opacity:0.5;fill:#FFFFFF;" points="373.355,139.314 386.486,134.738 403.342,149.283 390.211,153.858 				"/>
				<polygon style="fill:#BA68C8;" points="381.528,199.415 394.66,194.84 406.062,204.679 392.931,209.255 				"/>
				<polygon style="opacity:0.5;fill:#FFFFFF;" points="381.528,199.415 394.66,194.84 406.062,204.679 392.931,209.255 				"/>
				<polygon style="fill:#BA68C8;" points="341.405,164.794 354.537,160.219 367.276,171.212 364.673,184.871 				"/>
				<polygon style="opacity:0.5;fill:#FFFFFF;" points="341.405,164.794 354.537,160.219 367.276,171.212 364.673,184.871 				"/>
			</g>
			<g id="Head_00000106866678638241098920000015996962722962898346_">
				<path style="fill:#263238;" d="M422.967,167.249c1.04-0.026,2.074-0.44,2.821-1.167c1.156-1.126,1.662-2.923,3.096-3.662
					c1.01-0.521,2.228-0.372,3.325-0.668c1.701-0.458,3.013-2.094,3.092-3.854c0.081-1.823-1.024-3.612-0.643-5.396
					c0.241-1.129,1.041-2.051,1.472-3.122c0.873-2.169-0.031-4.905-2.024-6.128c-0.901-0.553-1.955-0.808-2.883-1.316
					c-1.946-1.066-1.641-3.391-3.266-4.809c-1.397-1.219-3.442-1.745-5.227-1.171c-1.243,0.4-2.448,1.264-3.727,1
					c-0.718-0.148-1.311-0.633-1.956-0.981c-2.341-1.26-5.579-0.459-7.062,1.748c-0.457,0.68-0.794,1.499-1.499,1.917
					c-1.343,0.795-1.556,1.733-2.186,3.162c-0.63,1.428-0.717,3.198,0.182,4.475c0.645,0.916,1.727,1.502,2.201,2.517
					c0.885,1.896-0.772,3.977-0.965,6.061c-0.39,4.203,3.852,3.884,5.741,6.288c0.614,0.781,0.99,1.719,1.506,2.567
					c1.044,1.717,3.247,0.967,5.006,1.668c0.634,0.253,1.242,0.582,1.904,0.751C422.231,167.219,422.599,167.259,422.967,167.249z"
					/>
				<path style="fill:#BA68C8;" d="M418.168,142.866c1.066,0.693,2.056,1.559,2.658,2.679c0.231,0.43,0.404,0.936,0.261,1.402
					c-0.26,0.845-1.337,1.071-2.221,1.097c-3.331,0.098-7.137-1.192-8.353-4.664C408.962,138.952,416.634,141.869,418.168,142.866z"
					/>
				<path style="fill:#263238;" d="M413.304,177.186c-1.155,0.258-2.275-0.528-3.104-1.373c-1.894-1.929-3.203-4.375-5.128-6.273
					c-2.345-2.311-5.446-3.663-8.48-4.94c-1.588-0.669-2.985-1.092-4.677-1.202c-1.42-0.093-2.66-1.388-3.303-2.575
					c-0.723-1.335-0.893-2.959-0.46-4.415c0.41-1.382,1.336-2.621,1.43-4.059c0.067-1.026-0.302-2.033-0.333-3.061
					c-0.058-1.918,1.193-3.807,2.981-4.502c1.75-0.68,3.876-0.303,5.414-1.38c1.185-0.829,1.747-2.356,2.96-3.145
					c0.625-0.407,1.373-0.581,2.113-0.668c2.436-0.285,4.969,0.338,6.994,1.721c0.819,0.559,1.567,1.243,2.479,1.631
					c1.181,0.503,2.516,0.462,3.764,0.761c2.329,0.559,4.709,2.237,5.472,4.561c0.52,1.583,0.313,3.234,0.773,4.815
					c0.481,1.654,1.626,3.022,2.402,4.56c0.926,1.837,1.317,3.94,1.113,5.988c-0.079,0.792-0.254,1.597-0.693,2.261
					c-1.109,1.675-3.65,2.13-4.401,3.993c-0.228,0.566-0.252,1.19-0.357,1.792c-0.516,2.947-3.275,5.34-6.265,5.436
					C413.314,177.135,413.968,177.037,413.304,177.186z"/>
				<path style="fill:#B16668;" d="M414.795,182.496c0.054-1.506,0.613-9.051,0.613-9.051c0.038,0.565,2.711,2.225,5.29-0.573
					c2.647-2.873,2.417-7.034,0.665-8.763c-2.707-2.672-6.773-0.504-7.347,3.16c-2.15,1.078-2.824-1.568-1.356-4.532
					c-0.11-2.438-2.622-2.831-2.305-8.127c-0.212-2.645-8.242-5.208-15.3-3.886c-1.473,3.034-3.298,5.497-3.032,9.346
					c0.094,1.362-1.052,2.996-1.208,4.798c-0.692,8.001,1.404,11.868,3.91,13.331c1.68,0.981,3.138,1.387,6.151,1.469l-0.253,2.511
					l0,0c-0.113,1.258-0.025,2.401-1.269,2.757c-0.55,0.802-1.944,6.582,2.353,10.621c8.229-1.771,14.752-8.641,15.348-9.858
					C415.04,184.965,414.742,184.002,414.795,182.496z"/>
				<g>
					<path id="XMLID_00000148626417359884504510000011802323854671353241_" style="fill:#263238;" d="M393.141,158.588l3.348-0.601
						c-0.132-0.938-0.989-1.564-1.914-1.398C393.651,156.755,393.009,157.65,393.141,158.588z"/>
					<path id="XMLID_00000000941255642628277000000013663279898101182104_" style="fill:#263238;" d="M405.534,157.73l2.532,2.336
						c-0.624,0.729-1.696,0.797-2.395,0.152C404.972,159.573,404.911,158.459,405.534,157.73z"/>
					<path id="XMLID_366_" style="fill:#263238;" d="M396.34,161.511c-0.007,0.775-0.65,1.414-1.434,1.427
						c-0.785,0.013-1.414-0.604-1.407-1.379c0.007-0.775,0.65-1.414,1.434-1.427C395.718,160.119,396.348,160.736,396.34,161.511z"
						/>
					<path id="XMLID_00000138554972863277632540000015731455062766424496_" style="fill:#263238;" d="M406.272,163.124
						c-0.008,0.775-0.65,1.414-1.435,1.427c-0.785,0.014-1.414-0.604-1.407-1.379c0.007-0.775,0.65-1.414,1.434-1.427
						C405.65,161.731,406.28,162.349,406.272,163.124z"/>
				</g>
				<path style="fill:#9A4A4D;" d="M394.727,167.369l4.218,1.839l1.653-7.912C398.816,161.201,396.794,164.018,394.727,167.369z"/>
				<g>
					<circle style="fill:#9A4A4D;" cx="400.262" cy="171.913" r="1.383"/>
					<path style="fill:#F28F8F;" d="M401.596,171.565c0.029,0.112,0.049,0.227,0.049,0.347c0,0.764-0.62,1.384-1.384,1.384
						c-0.346,0-0.659-0.132-0.902-0.342C399.845,172.193,400.656,171.672,401.596,171.565z"/>
				</g>
				<g id="XMLID_00000165195460191427042030000015607208432057980596_">
					<path id="XMLID_00000083086711166777241920000002685705033390613165_" style="fill:#9A4A4D;" d="M400.877,179.666
						c4.011,0.014,6.835-0.66,8.647-1.806c1.551-0.981,2.701-2.266,3.309-3.373c0,0-0.861,2.943-2.88,4.48
						c-3.733,2.841-9.268,2.599-9.268,2.599L400.877,179.666z"/>
				</g>
			</g>
			<path style="fill:#B16668;" d="M402.773,221.73c0,0-0.301,1.604-0.323,1.878c-0.056,3.047,1.743,5.059,4.546,6.274
				c3.876,1.679,10.431,3.703,18.827,5.952c9.553,2.559,14.426,0.922,16.18-0.803c1.754-1.724,2.506-5.828,1.432-10.252
				c-3.314-13.649-4.03-15.945-5.635-21.246c-4.211-13.913-6.608-14.173-13.384-16.096c-3.779,4.203-4.248,12.443-1.996,19.807
				c3.056,9.994,5.242,15.435,5.242,15.435s-7.791-0.725-16.591-2.573c-3.599-0.756-2.578-5.995-2.578-5.995L402.773,221.73z"/>
			<g>
				<path style="fill:#9A4A4D;" d="M408.155,212.225c0.529-2.768,0.419-3.364-0.635-5.372c-1.054-2.008-1.513-2.942-1.989-3.689
					c-0.476-0.747-2.574-3.042-3.179-3.369c-1.086-0.588-1.653,1.605-0.768,3.066c0.885,1.46,2.185,3.276,2.185,3.276
					L408.155,212.225z"/>
				<path style="fill:#B16668;" d="M405.911,224.778c-0.252-0.721,2.338-2.497,2.096-3.817c-0.241-1.319-0.477-1.382,0.264-2.523
					c0.741-1.142,0.698-2.175,0.259-2.815c-0.439-0.639,0.951-1.097,0.551-2.524c-0.306-1.092-1.918-3.816-2.675-4.885
					c-0.757-1.069-3.867-2.703-5.287-3.363c-1.42-0.659-1.728,0.54-1.693,1.445c0.035,0.906,1.141,2.096,1.141,2.096
					s-1.651-0.558-1.966-0.029c-0.414,0.696-0.288,2.171,1.341,3.398c-1.348-0.642-1.99-0.115-1.843,0.971
					c0.112,0.831,0.799,1.732,1.876,2.64c1.355,1.143,3.044,2.435,3.233,3.846l-0.436,2.512L405.911,224.778z"/>
				<path style="fill:#9A4A4D;" d="M405.911,224.778c-0.132-0.306,0.072-0.632,0.193-0.897c0.152-0.271,0.324-0.52,0.498-0.761
					c0.34-0.485,0.713-0.945,0.938-1.423c0.114-0.232,0.191-0.471,0.163-0.669l-0.124-0.876c-0.049-0.294-0.042-0.688,0.118-0.982
					c0.163-0.286,0.351-0.519,0.574-0.73c-0.098,0.288-0.23,0.563-0.272,0.837c-0.059,0.268-0.004,0.493,0.079,0.776
					c0.088,0.276,0.165,0.569,0.235,0.873c0.074,0.4-0.052,0.752-0.184,1.053c-0.301,0.595-0.718,1.044-1.139,1.47l-0.629,0.623
					C406.159,224.276,405.935,224.475,405.911,224.778z"/>
				<path style="fill:#9A4A4D;" d="M400.567,208.392c0.797,0.314,1.582,0.637,2.35,1.001c0.774,0.371,1.523,0.714,2.276,1.253
					c0.695,0.671,1.123,1.355,1.602,2.078c0.464,0.715,0.878,1.462,1.247,2.236c-0.579-0.632-1.132-1.279-1.66-1.938l-0.798-0.979
					c-0.26-0.315-0.54-0.666-0.798-0.888c-0.62-0.46-1.403-0.866-2.11-1.316C401.951,209.401,401.239,208.926,400.567,208.392z"/>
				<path style="fill:#9A4A4D;" d="M406.696,218.275c-0.502-0.632-0.918-1.343-1.345-1.984c-0.43-0.632-0.995-1.119-1.633-1.583
					c-1.263-0.945-2.573-1.865-3.776-2.946c1.485,0.648,2.86,1.469,4.168,2.424c0.644,0.48,1.296,1.084,1.675,1.842
					C406.167,216.766,406.411,217.515,406.696,218.275z"/>
			</g>
			<path style="fill:#9A4A4D;" d="M427.661,222.677c3.707-0.02,7.056,0.466,9.779,3.332c-2.15-4.514-6.522-4.526-10.305-4.702
				L427.661,222.677z"/>
			<path style="fill:#455A64;" d="M423.904,187.22c6.112,1.452,7.258,1.954,8.978,4.032c1.72,2.078,2.651,3.964,4.801,10.795
				c-1.648,4.252-15.191,7.207-15.191,7.207s-1.361-3.887-1.863-7.613C420.128,197.916,420.085,191.214,423.904,187.22z"/>
		</g>
	</g>
</g>
<g id="Character_2">
	<g id="Character_00000003787978881839633510000000403884673345709210_">
		<g id="Bottom_1_">
			<g>
				<path style="fill:#FFA8A7;" d="M207.457,410.928c0.611-8.904,0.927-13.069,1.775-28.976v0c0.076-4.077,0.223-8.445,0.496-12.326
					c0.92-13.055,2.599-16.163,3.722-20.642c1.123-4.478,0.975-16.598,2.687-44.672c0.949-15.572,3.205-24.194,5.181-31.719h40.209
					c4.132,17.601,5.309,55.712,5.186,73.852c-0.063,9.249-0.163,57.031,0.068,60.849c0.245,4.039,2.285,6.587,3.867,8.285
					c3.314,3.555,5.691,4.994,9.843,8.094c-0.601,1.588-9.305,1.53-11.777,0.321c-3.949-1.931-9.04-5.104-10.388-6.102
					c-3.412-2.526-4.211-4.051-4.267-7.895c-0.009-0.479,0.01-1.179,0.035-1.255c-0.065-2.244-6.536-35.726-7.947-43.288
					c-1.096-5.872,0.105-17.246,0.105-17.246l-4.261-27.971c0,0-3.751,22.312-6.319,33.621c-1.887,8.31-6.556,21.437-9.612,34.728
					l0,0c-3.57,13.51-3.856,14.698-5.962,24.375c-1.062,4.878-3.659,21.28-4.841,24.654c-3.817,10.89-12.458,5.481-12.948-0.54
					C201.984,433.07,207.325,412.846,207.457,410.928z"/>
				<path id="XMLID_00000166649918058424130350000009590670636176308374_" style="fill:#AF6152;" d="M241.992,320.239l3.115-20.177
					c0,0,12.042-1.43,16.421-5.637c0,0-5.522,7.792-13.692,9.062l-3.434,16.726l1.815,27.758L241.992,320.239z"/>
			</g>
			<g>
				<path style="fill:#263238;" d="M289.702,428.179c0.225-0.002,0.592,2.479-0.621,3.548c-1.401,1.234-5.529,3.281-11.019,2.63
					c-5.49-0.65-8.477-2.315-10.691-4.127c-2.214-1.813-5.316-4.37-7.802-4.89c-2.309-0.483-6.072-1.742-6.817-2.446
					c-0.745-0.704-0.676-3.871-0.676-3.871L289.702,428.179z"/>
				<path id="XMLID_00000048499220928022692860000004220086080580915848_" style="fill:#37474F;" d="M254.018,407.9
					c0,0-0.736,0.352-0.87,1.086c-0.159,0.874-0.155,1.992-0.502,3.428c-0.482,1.996-0.775,6.079-0.456,7.698
					c0.319,1.619,5.337,2.947,7.747,3.835c2.461,0.907,5.317,2.801,7.828,4.827c2.599,2.096,8.042,4.17,11.616,4.184
					c5.456,0.021,8.973-1.496,10.043-3.469c1.324-2.44,0.25-3.834-6.05-6.672c-1.193-0.537-5.388-2.96-6.818-3.839
					c-1.511-0.929-2.961-1.964-4.3-3.13c-0.677-0.59-1.326-1.213-1.934-1.873c-0.536-0.581-1.289-1.283-1.61-2.01
					c-0.073-0.165-0.124-0.358-0.189-0.529c-0.188-0.494-0.319-0.95-0.424-1.465c-0.107-0.52-0.178-1.279-0.678-1.586
					c-0.573-0.353-1.6-0.297-2.244-0.241c-0.81,0.07-1.623,0.182-2.414,0.368c-0.921,0.217-3.237,0.069-3.775,0.942
					c-0.412,0.668-0.467,1.508-0.492,2.277c-0.012,0.366,0,0.734,0.001,1.101c0,0.156,0.07,0.437-0.15,0.374
					c-0.209-0.06-0.448-0.604-0.529-0.789c-0.178-0.408-0.294-0.845-0.489-1.246c-0.223-0.459-0.404-0.998-0.794-1.319
					c-1.053-0.865-2.06-0.684-2.364-0.98C254.172,408.871,254.055,408.21,254.018,407.9z"/>
				<path style="fill:#FAFAFA;" d="M284.39,423.285c-7.892,0.629-10.327,5.533-10.63,8.555c1.965,0.673,3.987,1.112,5.621,1.118
					c5.456,0.021,9.198-1.497,10.267-3.469C290.897,427.188,290.012,425.351,284.39,423.285z"/>
				<g>
					<g>
						<path style="fill:#F0F0F0;" d="M272.551,423.493c-0.086,0.001-0.173-0.026-0.245-0.085c-0.167-0.133-0.193-0.375-0.06-0.542
							c1.085-1.358,4.237-3.174,7.111-2.892c0.213,0.02,0.368,0.21,0.347,0.421c-0.02,0.211-0.204,0.367-0.421,0.347
							c-2.682-0.255-5.574,1.53-6.435,2.607C272.774,423.442,272.664,423.492,272.551,423.493z"/>
					</g>
					<g>
						<path style="fill:#F0F0F0;" d="M269.129,421.547c-0.086,0.001-0.173-0.026-0.245-0.084c-0.167-0.133-0.193-0.376-0.06-0.542
							c1.086-1.359,4.239-3.18,7.111-2.892c0.213,0.02,0.368,0.21,0.347,0.421c-0.02,0.211-0.2,0.366-0.421,0.346
							c-2.682-0.259-5.574,1.529-6.434,2.607C269.351,421.497,269.241,421.546,269.129,421.547z"/>
					</g>
					<g>
						<path style="fill:#F0F0F0;" d="M265.953,419.318c-0.086,0.001-0.173-0.027-0.245-0.085c-0.167-0.133-0.193-0.376-0.06-0.542
							c1.085-1.359,4.25-3.176,7.111-2.892c0.212,0.02,0.368,0.21,0.347,0.421c-0.02,0.212-0.201,0.366-0.421,0.347
							c-2.679-0.257-5.574,1.529-6.434,2.607C266.175,419.267,266.065,419.316,265.953,419.318z"/>
					</g>
					<g>
						<path style="fill:#F0F0F0;" d="M262.841,417.087c-0.084,0.001-0.169-0.025-0.24-0.081c-0.169-0.13-0.199-0.373-0.069-0.541
							c1.492-1.926,4.897-3.221,7.768-2.939c0.213,0.02,0.368,0.21,0.347,0.421c-0.02,0.212-0.203,0.361-0.421,0.347
							c-2.585-0.253-5.76,0.935-7.084,2.643C263.067,417.035,262.954,417.086,262.841,417.087z"/>
					</g>
				</g>
			</g>
			<g>
				<path style="fill:#263238;" d="M216.444,438.868c-0.625,3.673-1.471,6.061-3.024,8.083c-1.552,2.023-4.102,2.429-6.538,1.517
					c-2.436-0.913-5.458-2.966-5.823-6.235c-0.365-3.269-0.541-5.501,0.408-8.867L216.444,438.868z"/>
				<path id="XMLID_00000031899156773481202990000003310105036055846569_" style="fill:#37474F;" d="M207.457,410.928
					c-1.042-0.033-1.311,4.897-2.457,9.802c-1.229,5.257-2.231,7.284-3.286,11.589c-1.205,4.918-0.626,7.24,0.788,10.451
					c1.413,3.212,7.276,6.858,10.806,2.875c2.878-3.248,3.413-7.143,3.74-12.152c0.336-5.177,1.222-8.581,2.073-12.427
					c0.88-3.979,1.829-7.587,0.978-8.102c-0.13,0.541-0.746,3.355-1.057,3.962c-0.136,0.266-0.612,0.915-0.656-0.144
					c-0.013-0.315,0.161-1.018,0.169-1.328c0.022-0.871-0.486-1.071-0.805-1.298c-0.689-0.49-2.277-1.22-4.293-1.454
					c-2.016-0.234-3.754-0.494-4.942-0.043c-0.715,0.271-0.769,0.918-0.912,1.539c-0.171,0.741-0.235,1.204-0.402,1.034
					C206.864,414.888,207.506,411.473,207.457,410.928z"/>
				<path style="fill:#FAFAFA;" d="M201.107,435.178c-0.522,3.079-0.017,5.284,1.09,7.798c1.414,3.212,7.774,6.923,11.303,2.94
					c1.757-1.982,2.445-4.479,2.941-7.05C214.983,435.332,204.305,432.663,201.107,435.178z"/>
				<g>
					<g>
						<path style="fill:#F0F0F0;" d="M214.791,433.19c-0.043-0.009-0.084-0.025-0.123-0.049c-0.039-0.024-4.598-2.53-9.369-1.969
							c-0.21,0.021-0.402-0.127-0.428-0.338c-0.025-0.211,0.127-0.403,0.339-0.428c5.045-0.59,9.693,1.975,9.865,2.08
							c0.18,0.113,0.236,0.351,0.124,0.531C215.111,433.158,214.945,433.223,214.791,433.19z"/>
					</g>
					<g>
						<path style="fill:#F0F0F0;" d="M205.942,427.477c-0.143-0.031-0.263-0.142-0.296-0.294c-0.045-0.208,0.086-0.414,0.294-0.46
							c4.803-1.055,9.681,1.868,9.863,1.992c0.177,0.119,0.223,0.357,0.104,0.534c-0.119,0.176-0.361,0.218-0.534,0.104
							c-0.041-0.027-4.796-2.864-9.266-1.876C206.051,427.489,205.995,427.488,205.942,427.477z"/>
					</g>
					<g>
						<path style="fill:#F0F0F0;" d="M206.494,423.988c-0.14-0.03-0.258-0.138-0.294-0.287c-0.049-0.208,0.078-0.416,0.285-0.464
							c5.294-1.259,9.886,1.853,10.055,1.983c0.169,0.13,0.2,0.372,0.07,0.54c-0.13,0.169-0.376,0.2-0.54,0.07
							c-0.037-0.029-4.478-3.015-9.405-1.844C206.606,424,206.548,423.999,206.494,423.988z"/>
					</g>
					<g>
						<path style="fill:#EBEBEB;" d="M207.13,420.563c-0.138-0.03-0.255-0.135-0.293-0.282c-0.052-0.206,0.072-0.416,0.278-0.468
							c4.97-1.258,9.927,1.961,10.111,2.098c0.172,0.125,0.208,0.366,0.083,0.538c-0.125,0.172-0.366,0.212-0.538,0.082
							c-0.043-0.031-4.851-3.141-9.466-1.972C207.246,420.574,207.187,420.575,207.13,420.563z"/>
					</g>
				</g>
			</g>
			<path style="fill:#455A64;" d="M217.668,272.593c-1.028,10.723-1.53,13.675-3.17,38.124c-1.591,23.709-0.666,30.932-0.9,33.789
				c-0.536,6.552-3.44,8.814-4.287,24.271c-0.776,14.167-1.242,31.639-1.242,31.639s1.906,2.621,7.303,3.104
				c4.978,0.446,7.468-1.422,7.468-1.422s9.229-33.018,11.806-41.335c3.495-11.284,7.348-34.84,7.348-34.84l3.255,22.667
				c0,0-1.048,10.859,1.058,21.112c2.611,12.712,5.276,26.526,5.276,26.526s3.262,1.362,7.499,0.934
				c5.826-0.588,7.774-1.943,7.774-1.943s1.635-38.405,1.635-52.432c0-14.027-0.543-48.467-1.742-70.299L217.668,272.593z"/>
			<path style="fill:#37474F;" d="M241.992,325.923l4.044-24.542c0,0,8.122-2.145,13.335-7.596
				c-0.387,4.064-7.61,9.277-10.993,10.088l-4.514,21.747l1.383,22.971L241.992,325.923z"/>
			<path style="fill:#37474F;" d="M232.564,276.394c-1.273,2.013-2.229,4.21-3.045,6.44c-0.823,2.232-1.466,4.521-2.029,6.825
				c-0.536,2.311-0.98,4.641-1.285,6.992c-0.312,2.348-0.521,4.718-0.469,7.097c0.566-2.308,1.093-4.598,1.617-6.89
				c0.535-2.288,1.037-4.579,1.591-6.856c0.527-2.283,1.1-4.552,1.684-6.821C231.225,280.916,231.855,278.662,232.564,276.394z"/>
			<path style="fill:#37474F;" d="M229.463,277.252c-1.198,1.09-2.247,2.313-3.209,3.6c-0.971,1.282-1.825,2.647-2.609,4.052
				c-0.759,1.419-1.448,2.88-1.979,4.406c-0.537,1.52-0.95,3.096-1.087,4.712l2.158-4.249c0.732-1.392,1.456-2.782,2.219-4.154
				c0.739-1.385,1.519-2.749,2.273-4.137C227.994,280.099,228.762,278.711,229.463,277.252z"/>
			<path style="fill:#37474F;" d="M234.618,305.634c-1.023,7.354-1.943,14.719-2.868,22.074c-0.951,7.352-1.665,19.218-3.018,26.484
				c-1.39,7.258-9.939,35.73-11.064,43.067c1.696-7.231,11.107-35.485,12.533-42.796c1.334-7.329,1.987-19.234,2.703-26.625
				C233.636,320.448,234.17,313.045,234.618,305.634z"/>
			<path style="fill:#37474F;" d="M261.029,305.634l1.211,19.348c0.178,3.224,0.385,6.445,0.532,9.667
				c0.147,3.217,0.338,6.452,0.285,9.634c-0.066,3.196-0.267,34.092,0.168,40.559c0.76-7.202,1.107-34.026,1.326-40.534
				c-0.02-6.539-0.574-12.963-1.153-19.414C262.801,318.452,262.025,312.026,261.029,305.634z"/>
			<path style="fill:#37474F;" d="M250.977,393.119l1.096,6.724c0,0,2.694,1.72,8.347,1.135c5.653-0.584,6.466-2.413,6.466-2.413
				v-6.326c0,0-1.354,1.315-6.516,1.897C255.208,394.72,250.977,393.119,250.977,393.119z"/>
			<path style="fill:#37474F;" d="M208.186,395.729l-0.503,6.794c0,0,2.219,2.301,7.852,3.051c5.634,0.75,6.85-0.838,6.85-0.838
				l1.475-6.152c0,0-1.624,0.963-6.779,0.325C211.927,398.272,208.186,395.729,208.186,395.729z"/>
		</g>
		<g id="Top_00000145738249028615950930000015318433927929197967_">
			<g id="Chest_00000080205299465651626360000000184293024554021767_">
				<g>
					<path style="fill:#FFA8A7;" d="M257.234,219.278c5.233,0.643,10.739,3.87,20.272,9.146c7.707,4.266,10.216,5.647,10.216,5.647
						s8.558-16.342,11.702-21.638c4.556-7.676,8.188,1.175,7.005,4.341c-2.219,5.936-2.947,12.8-6.646,25.661
						c-1.911,6.642-3.242,9.502-11.556,6.777c-6.845-2.244-24.109-8.605-24.109-8.605L257.234,219.278z"/>
					<path style="fill:#F28F8F;" d="M309.857,201.711c0.489-3.213-1.962-6.775-1.962-6.775l0.006,4.819L309.857,201.711z"/>
					<path style="fill:#263238;" d="M256.876,218.584c5.388,0.7,7.927,1.612,11.477,3.789c3.55,2.176,16.565,9.554,16.565,9.554
						s0.974,2.993,0.418,8.143c-0.557,5.15-4.106,7.238-4.106,7.238l-18.862-6.297L256.876,218.584z"/>
				</g>
				<g id="Chest_00000008866867892015273220000005545055571292439424_">
					<path id="XMLID_00000147916160736064733060000017874815721761172356_" style="fill:#37474F;" d="M217.668,223.256
						c0,0-4.115,8.355-1.537,23.666c1.178,6.996,2.049,12.439,1.537,21.734c-0.434,7.887-2.038,22.247-2.038,22.247
						c8.101,6.885,43.653,7.211,51.948-3.128c0,0-0.456-16.975-0.456-30.365c0-9.991-0.566-18.37-1.7-23.087
						c-2.564-10.663-6.382-14.125-8.545-15.739c-5.816-0.419-8.916-0.48-17.487,0.34c-6.658,0.637-14.41,2.384-19.137,3.449
						C218.337,222.804,217.668,223.256,217.668,223.256z"/>
				</g>
				<g>
					<path style="fill:#FFA8A7;" d="M217.668,223.256c-7.028,2.437-8.309,5.621-13.309,14.233
						c-5.001,8.612-10.094,20.28-12.038,25.836c-1.945,5.556,1.071,11.518,3.685,12.585c2.06,0.84,3.755,1.679,6.29-0.267
						c1.471-1.129,4.044-3.749,5.548-6.099c4.989-7.8,12.737-21.317,12.737-21.317S225.976,229.951,217.668,223.256z"/>
					<path style="fill:#F28F8F;" d="M204.045,269.082c1.291-6.65,0.178-8.973-0.38-13.134c-0.547-4.081-1.229-10.455-1.624-14.265
						c-1.886,3.557-3.71,7.342-5.298,10.868L204.045,269.082z"/>
					<path style="fill:#263238;" d="M197.259,250.332c0.42,2.093,5.516,12.665,13.908,14.511l10.481-17.042
						c0,0,4.14-10.832-1.396-25.428c-6.292,1.182-8.978,2.524-12.838,8.651C203.554,237.15,197.259,250.332,197.259,250.332z"/>
				</g>
				<g>
					<path style="fill:#FFA8A7;" d="M192.037,245.389c-0.05,1.255,0.182,2.141-0.032,6.304c-0.215,4.163-0.377,4.77-0.692,9.17
						c-0.348,4.857-1.221,7.978,1.89,12.936c3.184,5.074,6.787,3.924,9.938,1.139c1.556-4.83,1.098-12.551-0.845-18.152
						c-1.944-5.601-2.305-10.277-2.305-10.277L192.037,245.389z"/>
					<path style="fill:#F28F8F;" d="M187.8,233.752c-0.322-0.357-1.356-0.543-1.823-0.174c-0.454,0.359,0.174,1.581,1.033,3.218
						c0.568,1.082,1.794,4.986,3.012,6.627c1.217,1.641,1.923,2.9,2.076,4.964C193.362,243.147,191.29,237.324,187.8,233.752z"/>
				</g>
			</g>
			<g id="Head_00000132087956204074084810000001101935304469740982_">
				<g>
					<g id="XMLID_00000039852909677369183900000006600745760427216547_">
						<g id="XMLID_00000052817955979319288590000002897220311606121117_">
							<path style="fill:#263238;" d="M230.728,212.643c-3.423-4.908-6.535-7.987-9.058-13.479
								c-1.022-2.226-2.693-7.389-1.703-10.528c0.69-2.187,1.865-3.961,4.145-4.19c-0.833-2.915,0.409-4.812,1.533-6.176
								s3.075-1.982,4.779-1.514c0.055-1.515,1.037-2.958,2.426-3.566c1.389-0.608,3.115-0.35,4.266,0.638
								c0.882-2.216,2.992-2.605,4.006-2.628c1.789-0.041,3.55,1.082,4.269,2.721c3.17-2.86,8.494-1.028,8.681,4.537
								c0.714-0.647,1.826-0.811,2.695-0.397c0.87,0.414,1.444,1.381,1.391,2.343c-0.035,0.631-0.313,1.259-0.178,1.877
								c0.118,0.541,0.573,0.992,1.115,1.106c0.542,0.113,1.14-0.118,1.464-0.567c0.329,0.963,0.133,2.088-0.502,2.883
								c-0.635,0.795-1.689,1.235-2.701,1.127c0.265,0.843-0.014,1.83-0.682,2.41c-0.486,0.421-1.283,0.605-1.914,0.548
								C254.758,189.785,230.863,212.514,230.728,212.643z"/>
							<path style="fill:#FFA8A7;" d="M255.995,205.086c-0.452,4.216-2.081,6.339-4.789,7.609c-1.852,0.869-4.533,1.153-4.533,1.153
								l0.399,4.501c9.162,8.955-10.726,10.199-15.433,2.053l-1.603-13.634c0,0-1.544,2.261-4.742,0.699
								c-2.192-1.079-4.073-4.323-2.985-7.657c1.082-3.277,4.013-3.479,5.613-2.196c1.782,1.429,1.816,2.945,2.599,2.792
								c1.21-0.237,1.675-0.894,1.877-1.689c0.361-1.392,0.305-2.776-0.004-5.741c1.053-0.716,2.232-1.909,2.616-2.871
								c0.964-2.416,0.001-4.714-0.856-6.167c3.194-1.603,7.039,1.523,10.64,1.591c4.124,0.078,4.127-3.39,6.374-3.351
								c1.954,1.402,3.194,5.061,3.362,7.484C254.86,194.386,256.889,196.747,255.995,205.086z"/>
							<path style="fill:#F28F8F;" d="M246.672,213.846c-4.851,0.277-10.04-0.707-12.003-2.303c-1.962-1.597-3.159-5.21-3.159-5.21
								s0.84,4.648,2.438,6.547c1.598,1.899,5.105,2.38,7.23,2.638c2.124,0.258,5.663,0.22,5.663,0.22L246.672,213.846z"/>
						</g>
					</g>
				</g>
				<g>
					<path id="XMLID_00000052822832761399867200000015242936131071041190_" style="fill:#263238;" d="M252.646,191.08l-3.314-1.04
						c0.255-0.933,1.204-1.456,2.119-1.169C252.367,189.158,252.901,190.148,252.646,191.08z"/>
					<path id="XMLID_00000011731376711300557870000001367417429079575440_" style="fill:#263238;" d="M237.455,193.065l2.771-2.165
						c-0.574-0.794-1.659-0.953-2.425-0.355C237.037,191.143,236.881,192.271,237.455,193.065z"/>
					<path id="XMLID_00000145775724716074296070000002089048649572729512_" style="fill:#263238;" d="M249.648,194.203
						c0.072,0.788,0.779,1.384,1.579,1.333c0.799-0.052,1.389-0.733,1.317-1.52c-0.072-0.789-0.779-1.385-1.578-1.333
						C250.165,192.734,249.575,193.415,249.648,194.203z"/>
					<path id="XMLID_00000118362172248950039830000009542816045825894072_" style="fill:#263238;" d="M238.82,195.542
						c0.072,0.788,0.779,1.385,1.579,1.333c0.8-0.052,1.389-0.733,1.317-1.52c-0.072-0.789-0.779-1.385-1.578-1.333
						C239.338,194.074,238.747,194.754,238.82,195.542z"/>
					<path style="fill:#F28F8F;" d="M250.952,199.996l-4.599,2.033l-1.818-9.06C246.199,192.523,249.123,196.913,250.952,199.996z"
						/>
					<path style="fill:#B16668;" d="M245.766,204.945c-0.385-0.719-1.26-1.127-2.022-1.296c-0.431-0.096-0.878-0.13-1.318-0.1
						c-0.461,0.031-0.929,0.088-1.33,0.332c-0.195,0.119,0.021,0.45,0.204,0.438c0.799-0.054,1.571-0.194,2.37-0.039
						c0.391,0.076,0.789,0.209,1.149,0.376c0.297,0.137,0.557,0.337,0.851,0.479C245.78,205.188,245.802,205.012,245.766,204.945z"
						/>
				</g>
			</g>
		</g>
		<g>
			<g>
				<path style="fill:#BA68C8;" d="M307.895,193.691c0-35.336-28.635-63.971-63.971-63.971c-35.316,0-63.95,28.634-63.95,63.971
					c0,1.578,0,7.798,0,9.377c0,35.316,28.634,63.971,63.95,63.971c35.336,0,63.971-28.655,63.971-63.971
					C307.895,201.49,307.895,195.27,307.895,193.691z M243.924,233.028c-20.142,0-36.731-15.149-39.049-34.652
					c2.318-19.533,18.907-34.665,39.049-34.665c20.161,0,36.751,15.132,39.069,34.665
					C280.675,217.879,264.085,233.028,243.924,233.028z"/>
				<path style="opacity:0.5;fill:#FFFFFF;" d="M307.895,193.691c0-35.336-28.635-63.971-63.971-63.971
					c-35.316,0-63.95,28.634-63.95,63.971c0,1.578,0,7.798,0,9.377c0,35.316,28.634,63.971,63.95,63.971
					c35.336,0,63.971-28.655,63.971-63.971C307.895,201.49,307.895,195.27,307.895,193.691z M243.924,233.028
					c-20.142,0-36.731-15.149-39.049-34.652c2.318-19.533,18.907-34.665,39.049-34.665c20.161,0,36.751,15.132,39.069,34.665
					C280.675,217.879,264.085,233.028,243.924,233.028z"/>
			</g>
			<g>
				<path style="fill:#BA68C8;" d="M243.924,139.098c-35.316,0-63.951,28.635-63.951,63.971c0,35.316,28.634,63.971,63.951,63.971
					c35.336,0,63.971-28.655,63.971-63.971C307.895,167.732,279.26,139.098,243.924,139.098z M243.924,242.406
					c-21.73,0-39.337-17.627-39.337-39.337c0-21.75,17.607-39.357,39.337-39.357c21.75,0,39.357,17.607,39.357,39.357
					C283.281,224.778,265.674,242.406,243.924,242.406z"/>
				<path style="opacity:0.3;fill:#FFFFFF;" d="M243.924,139.098c-35.316,0-63.951,28.635-63.951,63.971
					c0,35.316,28.634,63.971,63.951,63.971c35.336,0,63.971-28.655,63.971-63.971C307.895,167.732,279.26,139.098,243.924,139.098z
					 M243.924,242.406c-21.73,0-39.337-17.627-39.337-39.337c0-21.75,17.607-39.357,39.337-39.357
					c21.75,0,39.357,17.607,39.357,39.357C283.281,224.778,265.674,242.406,243.924,242.406z"/>
			</g>
			<path style="fill:#BA68C8;" d="M243.928,233.03c-20.126,0-36.701-15.122-39.042-34.594c-0.183,1.52-0.298,3.06-0.298,4.633
				c0,21.709,17.602,39.34,39.34,39.34c21.748,0,39.35-17.631,39.35-39.34c0-1.573-0.115-3.113-0.298-4.633
				C280.639,217.908,264.064,233.03,243.928,233.03z"/>
			<path style="opacity:0.3;" d="M243.928,233.03c-20.126,0-36.701-15.122-39.042-34.594c-0.183,1.52-0.298,3.06-0.298,4.633
				c0,21.709,17.602,39.34,39.34,39.34c21.748,0,39.35-17.631,39.35-39.34c0-1.573-0.115-3.113-0.298-4.633
				C280.639,217.908,264.064,233.03,243.928,233.03z"/>
		</g>
		<g id="Hand_00000086649481406466470710000003030139853746503079_">
			<path style="fill:#FFA8A7;" d="M310.634,203.697c0.932-1.796,0.794-1.996,0.043-2.737c-0.75-0.741-2.359-1.907-4.478-1.538
				c-1.425,0.248-2.875,0.427-3.559,0.914c-0.684,0.487,0.168,1.95,2.093,2.101c3.034,0.238,3.13,1.039,3.13,1.039
				s-2.794-0.216-3.89-0.121c-1.096,0.095-3.006,0.897-4.217,1.27c-1.211,0.374-1.227,2.008,0.953,2.257
				c0,0-1.528,0.475-2.219,0.689c-1.554,0.482-1.973,1.406-0.583,2.211c0.33,0.191,0.781,0.403,1.517,0.334
				c0,0-1.694,0.242-1.648,0.81c0.131,1.629,1.239,1.902,4.804,2.405c3.035,0.428,4.148,1.471,4.003,2.688l-0.154,0.757
				c0,0,1.205-0.954,2.259-1.93c0.772-0.715,1.404-1.485,0.825-2.768c0,0,1.87-0.232,1.819-1.401
				c-0.051-1.169-0.805-2.407-0.805-2.407s1.017-0.697,0.753-2.061c-0.264-1.364-0.969-1.929-0.969-1.929L310.634,203.697z"/>
			<path style="fill:#F28F8F;" d="M300.709,206.881c0.67-0.201,1.292-0.444,2.03-0.519c0.762-0.04,1.43,0.179,2.089,0.347
				c1.318,0.381,2.624,0.806,3.874,1.409c-1.385-0.141-2.714-0.459-4.032-0.822c-0.658-0.184-1.311-0.412-1.925-0.461
				C302.114,206.822,301.397,206.913,300.709,206.881z"/>
			<path style="fill:#F28F8F;" d="M299.424,210.116c0.678-0.313,1.465-0.442,2.222-0.388c0.76,0.036,1.498,0.192,2.221,0.365
				c1.44,0.375,2.845,0.851,4.184,1.521c-1.481-0.211-2.909-0.578-4.333-0.932C302.293,210.333,300.915,209.932,299.424,210.116z"/>
		</g>
		<g id="Hand_00000168801580378583137740000004482712037302662530_">
			<path style="fill:#FFA8A7;" d="M189.264,241.752c-1.809-0.906-1.815-1.149-1.643-2.19c0.172-1.04,0.789-2.929,2.721-3.876
				c1.299-0.637,2.578-1.343,3.417-1.35c0.84-0.008,1.01,1.676-0.46,2.929c-2.316,1.975-1.747,2.47-1.747,2.47
				s1.959-1.607,2.902-2.174c0.943-0.567,2.96-1.04,4.159-1.449c1.2-0.409,2.172,0.904,0.554,2.386c0,0,1.516-0.514,2.201-0.746
				c1.541-0.522,2.423-0.021,1.771,1.447c-0.155,0.349-0.395,0.784-1.032,1.161c0,0,1.513-0.8,1.81-0.313
				c0.851,1.396,0.115,2.267-2.475,4.768c-2.205,2.13-2.491,3.618-1.658,4.517l0.569,0.556c0,0-1.537-0.089-2.964-0.26
				c-1.045-0.125-2.008-0.378-2.294-1.756c0,0-1.47,0.411-2.618-0.626c-0.637-0.575-0.439-1.861-0.439-1.861
				s-1.293-0.071-1.88-1.329c-0.588-1.259-0.289-2.027-0.289-2.027L189.264,241.752z"/>
			<path style="fill:#F28F8F;" d="M199.167,238.5c-0.66,0.231-1.306,0.4-1.948,0.772c-0.64,0.415-1.052,0.985-1.487,1.508
				c-0.843,1.082-1.65,2.194-2.308,3.416c1.038-0.928,1.927-1.966,2.78-3.034c0.424-0.535,0.819-1.103,1.287-1.504
				C197.996,239.277,198.629,238.93,199.167,238.5z"/>
			<path style="fill:#F28F8F;" d="M202.107,240.363c-0.732,0.145-1.445,0.502-2.026,0.992c-0.594,0.476-1.1,1.035-1.583,1.601
				c-0.945,1.149-1.803,2.36-2.493,3.689c1.075-1.041,2.015-2.176,2.959-3.299C199.913,242.223,200.792,241.089,202.107,240.363z"/>
		</g>
	</g>
</g>
<g id="Speech_Bubble">
	<g id="Speech_Bubble_00000041280794833711163740000005300220468699185825_">
		<g id="Speech_Bubble_7_">
			<path style="fill:#FAFAFA;" d="M272.56,119.909l-0.254-9.509c0,0,19.064-2.537,17.04-22.317
				c-1.264-12.35-7.932-21.911-46.765-20.811c-42.865,1.213-38.969,26.888-34.234,34.174c7.119,10.954,24.423,12.218,55.078,10.513
				l7.707,8.522C271.642,121.046,272.58,120.67,272.56,119.909z"/>
			<path style="fill:#BA68C8;" d="M271.703,121.904l-8.501-9.4c-30.94,1.709-48.116,0.286-55.301-10.769
				c-2.643-4.066-3.902-12.701,0.224-20.565c3.268-6.231,11.897-13.792,34.441-14.43c37.379-1.048,45.924,7.747,47.309,21.29
				c1.871,18.286-14.046,22.24-17.024,22.816l0.28,10.487C273.151,122.093,272.213,122.469,271.703,121.904z M263.65,111.413
				l8.399,9.288l-0.287-10.764l0.474-0.063c0.757-0.102,18.527-2.712,16.582-21.736c-1.117-10.918-5.59-21.485-46.222-20.334
				c-17.437,0.493-29.031,5.287-33.529,13.86c-3.913,7.461-2.78,15.636-0.274,19.492c6.921,10.648,23.917,11.978,54.604,10.272
				L263.65,111.413z"/>
		</g>
		<g>
			<path style="fill:#37474F;" d="M224.146,82.849c0.915,0,1.722,0.123,2.419,0.369c0.697,0.246,1.278,0.553,1.743,0.922
				c0.464,0.369,0.816,0.776,1.056,1.22c0.239,0.444,0.372,0.865,0.399,1.261c0.014,0.164-0.037,0.297-0.153,0.399
				c-0.116,0.103-0.25,0.154-0.4,0.154h-1.435c-0.232,0-0.407-0.044-0.522-0.133c-0.117-0.088-0.223-0.208-0.318-0.358
				c-0.205-0.342-0.516-0.639-0.933-0.892c-0.417-0.252-1.035-0.379-1.855-0.379c-0.355,0-0.694,0.038-1.015,0.113
				c-0.321,0.076-0.602,0.185-0.841,0.328c-0.239,0.144-0.428,0.318-0.564,0.523c-0.137,0.205-0.205,0.438-0.205,0.697
				c0,0.315,0.064,0.571,0.194,0.769c0.13,0.198,0.349,0.369,0.656,0.513c0.308,0.144,0.714,0.276,1.22,0.399
				c0.506,0.123,1.135,0.267,1.887,0.431c0.819,0.178,1.527,0.386,2.121,0.626c0.595,0.239,1.08,0.526,1.456,0.861
				c0.376,0.335,0.656,0.721,0.841,1.158c0.185,0.438,0.276,0.937,0.276,1.497c0,0.615-0.137,1.186-0.41,1.711
				c-0.273,0.526-0.663,0.978-1.168,1.354c-0.506,0.376-1.128,0.673-1.866,0.892c-0.738,0.219-1.565,0.328-2.48,0.328
				c-0.766,0-1.497-0.092-2.193-0.277c-0.697-0.185-1.316-0.451-1.855-0.799c-0.54-0.349-0.974-0.769-1.302-1.261
				c-0.328-0.492-0.513-1.039-0.554-1.64c-0.014-0.164,0.037-0.297,0.153-0.399c0.116-0.103,0.249-0.154,0.4-0.154h1.435
				c0.232,0,0.41,0.041,0.533,0.123c0.123,0.082,0.226,0.205,0.308,0.369c0.096,0.178,0.212,0.356,0.349,0.533
				c0.137,0.178,0.32,0.335,0.554,0.472c0.231,0.137,0.522,0.249,0.871,0.338c0.349,0.089,0.782,0.133,1.302,0.133
				c0.41,0,0.807-0.031,1.189-0.092c0.382-0.062,0.717-0.164,1.004-0.308c0.287-0.144,0.52-0.321,0.697-0.533
				c0.178-0.212,0.267-0.475,0.267-0.789c0-0.301-0.096-0.547-0.287-0.738c-0.191-0.191-0.482-0.355-0.871-0.492
				c-0.39-0.136-0.871-0.267-1.445-0.389c-0.574-0.123-1.237-0.28-1.989-0.472c-0.684-0.164-1.281-0.359-1.794-0.584
				c-0.512-0.226-0.936-0.502-1.271-0.83c-0.335-0.328-0.584-0.714-0.748-1.159c-0.164-0.444-0.246-0.974-0.246-1.589
				c0-0.615,0.136-1.182,0.41-1.702c0.272-0.519,0.648-0.963,1.127-1.332c0.479-0.369,1.049-0.659,1.712-0.871
				C222.666,82.955,223.38,82.849,224.146,82.849z"/>
			<path style="fill:#37474F;" d="M237.021,86.54c0.752,0,1.432,0.116,2.04,0.349s1.135,0.553,1.578,0.963
				c0.444,0.41,0.8,0.889,1.066,1.435c0.267,0.547,0.421,1.135,0.462,1.763c0.013,0.123,0.02,0.28,0.02,0.472s0,0.383,0,0.574
				c0,0.192,0,0.379,0,0.564s-0.007,0.338-0.02,0.461c-0.056,0.629-0.213,1.216-0.472,1.763c-0.26,0.546-0.612,1.021-1.057,1.425
				c-0.443,0.403-0.97,0.721-1.578,0.953c-0.608,0.232-1.288,0.349-2.04,0.349c-0.752,0-1.432-0.116-2.04-0.349
				c-0.608-0.232-1.135-0.55-1.578-0.953c-0.444-0.403-0.797-0.878-1.056-1.425c-0.26-0.547-0.418-1.135-0.472-1.763
				c-0.014-0.123-0.024-0.277-0.031-0.461c-0.007-0.185-0.01-0.372-0.01-0.564c0-0.191,0.003-0.382,0.01-0.574
				c0.007-0.191,0.018-0.349,0.031-0.472c0.041-0.628,0.194-1.216,0.461-1.763c0.267-0.546,0.622-1.025,1.066-1.435
				c0.443-0.41,0.97-0.731,1.578-0.963C235.589,86.656,236.269,86.54,237.021,86.54z M239.501,91.152
				c-0.041-0.423-0.14-0.775-0.297-1.056c-0.157-0.28-0.352-0.502-0.584-0.667c-0.233-0.164-0.485-0.277-0.759-0.338
				c-0.273-0.062-0.554-0.092-0.841-0.092s-0.567,0.031-0.841,0.092c-0.273,0.062-0.526,0.174-0.758,0.338
				c-0.233,0.164-0.428,0.386-0.585,0.667c-0.157,0.28-0.256,0.632-0.297,1.056c-0.014,0.109-0.025,0.246-0.031,0.41
				c-0.007,0.164-0.01,0.335-0.01,0.512c0,0.178,0.003,0.352,0.01,0.523c0.007,0.171,0.018,0.304,0.031,0.4
				c0.041,0.424,0.14,0.776,0.297,1.056c0.157,0.28,0.352,0.503,0.585,0.667c0.231,0.164,0.484,0.276,0.758,0.338
				c0.273,0.062,0.554,0.092,0.841,0.092s0.567-0.031,0.841-0.092c0.273-0.062,0.525-0.174,0.759-0.338
				c0.232-0.164,0.427-0.386,0.584-0.667c0.157-0.28,0.256-0.632,0.297-1.056c0.014-0.096,0.021-0.229,0.021-0.4s0-0.345,0-0.523
				c0-0.177,0-0.348,0-0.512C239.522,91.398,239.515,91.262,239.501,91.152z"/>
			<path style="fill:#37474F;" d="M249.506,89.205c-0.82,0-1.411,0.181-1.773,0.544s-0.543,0.953-0.543,1.773v5.33
				c0,0.151-0.055,0.28-0.164,0.39c-0.109,0.109-0.239,0.164-0.39,0.164h-1.559c-0.15,0-0.28-0.055-0.389-0.164
				c-0.11-0.109-0.164-0.239-0.164-0.39v-9.554c0-0.15,0.054-0.28,0.164-0.389c0.108-0.109,0.238-0.164,0.389-0.164h1.559
				c0.15,0,0.28,0.055,0.39,0.164c0.109,0.109,0.164,0.239,0.164,0.389v0.472c0.355-0.328,0.734-0.581,1.138-0.759
				c0.403-0.177,0.933-0.266,1.589-0.266h0.923c0.149,0,0.279,0.055,0.389,0.164c0.109,0.109,0.164,0.239,0.164,0.389v1.353
				c0,0.151-0.055,0.28-0.164,0.39c-0.109,0.11-0.239,0.164-0.389,0.164H249.506z"/>
			<path style="fill:#37474F;" d="M258.075,89.205c-0.82,0-1.411,0.181-1.773,0.544s-0.543,0.953-0.543,1.773v5.33
				c0,0.151-0.055,0.28-0.164,0.39c-0.109,0.109-0.239,0.164-0.39,0.164h-1.559c-0.15,0-0.28-0.055-0.389-0.164
				c-0.11-0.109-0.164-0.239-0.164-0.39v-9.554c0-0.15,0.054-0.28,0.164-0.389c0.108-0.109,0.238-0.164,0.389-0.164h1.559
				c0.15,0,0.28,0.055,0.39,0.164c0.109,0.109,0.164,0.239,0.164,0.389v0.472c0.356-0.328,0.734-0.581,1.138-0.759
				c0.403-0.177,0.933-0.266,1.589-0.266h0.923c0.149,0,0.279,0.055,0.389,0.164s0.164,0.239,0.164,0.389v1.353
				c0,0.151-0.055,0.28-0.164,0.39c-0.109,0.11-0.239,0.164-0.389,0.164H258.075z"/>
			<path style="fill:#37474F;" d="M264.902,96.831l-4.06-9.39c-0.014-0.041-0.021-0.089-0.021-0.144c0-0.15,0.055-0.28,0.164-0.389
				c0.109-0.109,0.238-0.164,0.39-0.164h1.537c0.164,0,0.308,0.055,0.431,0.164c0.123,0.109,0.205,0.219,0.246,0.328l2.727,6.335
				l2.727-6.335c0.041-0.109,0.123-0.218,0.246-0.328c0.123-0.109,0.267-0.164,0.431-0.164h1.538c0.149,0,0.279,0.055,0.389,0.164
				s0.164,0.239,0.164,0.389c0,0.055-0.007,0.103-0.021,0.144l-5.761,13.367c-0.041,0.109-0.123,0.218-0.246,0.328
				c-0.123,0.109-0.267,0.164-0.431,0.164h-1.537c-0.15,0-0.28-0.055-0.39-0.164c-0.109-0.11-0.164-0.239-0.164-0.39
				c0-0.055,0.007-0.103,0.02-0.144L264.902,96.831z"/>
			<path style="fill:#37474F;" d="M275.973,94.494c0.15,0,0.28,0.055,0.39,0.164c0.109,0.109,0.164,0.239,0.164,0.389v1.804
				c0,0.151-0.055,0.28-0.164,0.39c-0.109,0.109-0.239,0.164-0.39,0.164h-1.764c-0.15,0-0.28-0.055-0.389-0.164
				c-0.11-0.109-0.164-0.239-0.164-0.39v-1.804c0-0.15,0.054-0.28,0.164-0.389c0.108-0.109,0.238-0.164,0.389-0.164H275.973z
				 M276.424,92.711c0,0.15-0.055,0.28-0.164,0.39c-0.109,0.109-0.239,0.164-0.39,0.164h-1.559c-0.15,0-0.28-0.055-0.389-0.164
				c-0.11-0.109-0.164-0.239-0.164-0.39v-9.103c0-0.15,0.054-0.28,0.164-0.39c0.108-0.109,0.238-0.164,0.389-0.164h1.559
				c0.15,0,0.28,0.055,0.39,0.164c0.109,0.109,0.164,0.239,0.164,0.39V92.711z"/>
		</g>
	</g>
</g>
<g id="Character_1">
	<g id="Character_00000076603369263015456010000005331749738977898675_">
		<g id="Bottom_00000066504957563341037030000009174882321217476510_">
			<g>
				<path style="fill:#FFBDA7;" d="M101.468,362.206l-1.584-14.105l16.064-1.446c0,0-0.679,10.872-0.582,15.859
					c0.046,2.35,1.707,6.772,1.707,6.772s-6.724,3.49-10.214,2.062c-3.49-1.427-5.798-6.929-5.715-7.936
					C101.227,362.404,101.468,362.206,101.468,362.206z"/>
				<path style="fill:#263238;" d="M135.692,384.402c0.221,0.004,0.388,2.048-0.836,3.05c-1.412,1.157-5.897,3.368-11.276,2.588
					c-5.379-0.78-8.268-2.473-10.393-4.288c-2.124-1.815-5.102-4.376-7.531-4.947c-2.256-0.531-5.294-2.392-6.006-3.094
					c-0.712-0.702-0.554-3.766-0.554-3.766L135.692,384.402z"/>
				<path id="XMLID_00000173868623211737462280000001832976140715730324_" style="fill:#455A64;" d="M101.466,362.182
					c0,0-0.677-0.004-0.829,0.703c-0.182,0.842-0.407,3.296-0.789,4.677c-0.531,1.919-0.936,5.864-0.669,7.44
					s4.537,3.539,6.88,4.465c2.394,0.946,5.148,2.858,7.558,4.887c2.495,2.101,7.785,4.333,11.3,4.369
					c4.159,0.042,8.865-1.203,9.973-3.083c1.371-2.326,2.389-5.039-3.723-7.958c-1.157-0.553-5.212-3.013-6.593-3.903
					c-3.736-2.408-6.356-4.604-8.018-8.78c-0.194-0.488-0.397-1.028-0.863-1.283c-0.357-0.195-0.791-0.176-1.197-0.127
					c-1.03,0.124-5.137,0.61-6.081,1.033c-0.835,0.374-2.017,0.806-2.019,1.85c0,0.363,0.1,0.719,0.213,1.065
					c0.07,0.214,0.122,0.499-0.069,0.621c-0.181,0.116-0.416-0.024-0.574-0.168c-0.635-0.581-1.094-1.319-1.625-1.993
					c-0.285-0.361-1.191-1.515-1.553-1.803c-0.329-0.261-0.752-0.396-1.043-0.692C101.377,363.126,101.475,362.672,101.466,362.182z
					"/>
				<path style="fill:#37474F;" d="M113.617,384.353c-1.059-0.892-2.185-1.755-3.317-2.53l0-0.005c0,0,7.17,4.465,10.136,2.546
					c1.911-1.237,1.042-2.794,1.006-3.288c-0.036-0.494,6.692-3.857,8.529-4.04v0c0.505,0.287,0.923,0.533,1.196,0.645
					c4.779,1.978,5.374,4.433,4.516,7.492c-1.108,1.88-5.32,3.768-10.694,3.675C121.475,388.788,116.112,386.454,113.617,384.353z"
					/>
				<path style="fill:#37474F;" d="M120.962,379.63c3.805,1.576,2.157,2.253,1.081,2.385c-1.076,0.133-7.46-3.69-11.338-6.824
					c-4.046-3.269-7.164-7.617-8.667-8.818c-0.56-0.448-1.162-0.996-1.697-1.508c0.116-0.829,0.212-1.584,0.297-1.981
					c0.153-0.707,0.829-0.703,0.829-0.703c0.009,0.49-0.09,0.944,0.278,1.318c0.291,0.295,0.714,0.43,1.043,0.692
					c0.362,0.288,1.269,1.442,1.553,1.803c0.531,0.674,0.99,1.412,1.625,1.993C109.237,372.229,117.156,378.055,120.962,379.63z"/>
				<g>
					<g>
						<path style="fill:#263238;" d="M121.78,381.456c-0.085-0.001-0.169-0.03-0.239-0.089c-0.16-0.133-0.18-0.369-0.044-0.526
							c1.107-1.286,6.292-4.293,9.107-3.94c0.209,0.025,0.356,0.213,0.329,0.417c-0.026,0.204-0.194,0.344-0.424,0.324
							c-2.629-0.324-7.557,2.663-8.433,3.682C122,381.413,121.89,381.458,121.78,381.456z"/>
					</g>
					<g>
						<path style="fill:#263238;" d="M118.474,379.371c-0.085-0.001-0.169-0.03-0.238-0.089c-0.16-0.133-0.179-0.369-0.044-0.527
							c1.105-1.285,6.289-4.29,9.107-3.939c0.208,0.025,0.356,0.213,0.329,0.417c-0.026,0.204-0.211,0.349-0.424,0.324
							c-2.63-0.321-7.557,2.661-8.433,3.681C118.694,379.328,118.584,379.374,118.474,379.371z"/>
					</g>
					<g>
						<path style="fill:#263238;" d="M115.165,377.395c-0.084-0.001-0.169-0.03-0.238-0.089c-0.16-0.133-0.179-0.369-0.044-0.527
							c1.107-1.286,6.292-4.296,9.107-3.939c0.208,0.025,0.356,0.213,0.329,0.417c-0.026,0.204-0.207,0.349-0.424,0.324
							c-2.63-0.324-7.557,2.661-8.434,3.68C115.385,377.352,115.275,377.396,115.165,377.395z"/>
					</g>
					<g>
						<path style="fill:#263238;" d="M112.106,375.149c-0.085-0.001-0.169-0.03-0.239-0.089c-0.16-0.133-0.179-0.369-0.044-0.527
							c1.105-1.286,6.302-4.292,9.107-3.939c0.208,0.025,0.356,0.213,0.329,0.417c-0.026,0.204-0.208,0.349-0.424,0.324
							c-2.626-0.322-7.557,2.661-8.433,3.68C112.326,375.106,112.217,375.151,112.106,375.149z"/>
					</g>
					<g>
						<path style="fill:#263238;" d="M109.111,372.904c-0.082-0.001-0.165-0.029-0.234-0.085c-0.162-0.131-0.185-0.367-0.052-0.526
							c1.522-1.824,6.94-4.318,9.754-3.965c0.208,0.025,0.356,0.213,0.329,0.417c-0.026,0.204-0.21,0.344-0.424,0.324
							c-2.534-0.316-7.722,2.082-9.073,3.698C109.334,372.86,109.222,372.906,109.111,372.904z"/>
					</g>
				</g>
			</g>
			<g>
				<path style="fill:#FFBDA7;" d="M74.847,368.828l3.821-16.938l-16.709-2.607l-0.268,16.721c0,0-1.276,4.497-0.335,6.043
					c0.941,1.547,10.98,3.173,11.9,2.143C74.176,373.16,74.847,368.828,74.847,368.828z"/>
				<path style="fill:#263238;" d="M73.179,395.521c-0.439,3.799-1.236,6.256-2.88,8.314c-1.645,2.058-4.573,2.409-7.472,1.393
					c-2.899-1.017-6.567-3.234-7.245-6.641c-0.678-3.407-0.397-5.65,0.443-9.121L73.179,395.521z"/>
				<path id="XMLID_00000149381482290840832750000012991864055887197114_" style="fill:#455A64;" d="M61.691,366.004
					c-1.212-0.064-0.884,2.927-1.455,8.05c-0.618,5.542-3.117,9.885-4.006,14.329c-1.016,5.077-0.823,7.424,1.069,10.8
					c1.891,3.377,8.98,7.329,12.768,3.289c3.088-3.294,3.406-7.326,3.395-12.521c-0.012-5.37-0.069-9.153,0.376-13.173
					c0.425-3.842,2.037-7.392,1.009-7.951c-0.109,0.558-1.138,4.45-1.815,4.387c-0.039-0.502-0.004-0.961,0.058-1.46
					c0.054-0.434,0.036-0.917-0.269-1.289c-0.308-0.376-1.463-0.845-1.949-0.99c-1.178-0.354-3.283-0.794-4.486-1.039
					c-0.599-0.122-1.201-0.221-1.805-0.289c-0.49-0.055-1.068-0.089-1.54,0.006c-0.289,0.058-0.562,0.206-0.68,0.445
					c-0.087,0.177-0.083,0.384-0.092,0.583c-0.017,0.358-0.086,0.709-0.203,1.043c-0.052,0.147-0.18,0.319-0.351,0.261
					c-0.139-0.047-0.187-0.209-0.181-0.337C61.559,369.524,61.649,366.332,61.691,366.004z"/>
				<path style="fill:#37474F;" d="M56.576,386.946c-0.154,0.732-1.109,5.582,0.365,6.657c1.596,1.165,2.688-2.607,2.688-2.607
					s3.905-0.574,9.408,2.287c-0.327,0.766,0.408,3.514,1.975,3.144c1.556-0.367,2.437-5.957,2.449-6.029
					c-0.009,4.978-0.396,8.876-3.394,12.073c-3.787,4.04-10.877,0.088-12.768-3.289c-1.892-3.376-2.085-5.724-1.069-10.8
					C56.332,387.875,56.449,387.401,56.576,386.946z"/>
				<path style="fill:#37474F;" d="M60.053,391.382c-0.116,1.866-2.168,0.98-2.129-1.67c0.039-2.65,1.429-9.085,1.956-13.418
					c0.351-6.234,0.6-10.353,1.811-10.289c-0.008,0.063-0.009,0.126-0.016,0.189c0,0-0.125,3.552-0.142,3.955
					c-0.217,3.808-0.267,11.207-0.808,14.647C60.183,388.236,60.168,389.516,60.053,391.382z"/>
				<path style="fill:#37474F;" d="M68.389,393.153c0.486-1.787,0.881-2.987,1.472-6.416c0.587-3.404,2.624-10.219,3.634-13.883
					c0.326-0.602,1.352-4.026,1.352-4.026c0.839,0.237,0,3.502-0.392,5.03c-0.392,1.528-0.872,3.166-1.362,5.358
					c-1.254,4.32-1.373,10.805-2.181,13.292C70.103,394.994,67.903,394.94,68.389,393.153z"/>
				<g>
					<g>
						<path style="fill:#263238;" d="M69.148,393.45c-0.056-0.012-0.11-0.033-0.161-0.063c-0.042-0.026-4.328-2.548-9.261-1.993
							c-0.243,0.026-0.481-0.13-0.534-0.349c-0.054-0.22,0.1-0.418,0.342-0.446c5.278-0.594,9.716,2.023,9.903,2.136
							c0.213,0.128,0.287,0.378,0.162,0.558C69.505,393.43,69.323,393.487,69.148,393.45z"/>
					</g>
					<g>
						<path style="fill:#263238;" d="M70.355,389.517c-0.05-0.011-0.099-0.029-0.147-0.055c-0.048-0.026-4.876-2.677-10.37-2.228
							c-0.243,0.016-0.476-0.143-0.523-0.364c-0.045-0.22,0.116-0.415,0.359-0.435c5.811-0.471,10.747,2.242,10.955,2.357
							c0.218,0.123,0.301,0.371,0.185,0.555C70.725,389.493,70.537,389.556,70.355,389.517z"/>
					</g>
					<g>
						<path style="fill:#263238;" d="M60.321,383.418c-0.168-0.036-0.316-0.155-0.367-0.313c-0.068-0.218,0.068-0.428,0.305-0.47
							c5.494-0.961,10.724,2.132,10.945,2.265c0.215,0.128,0.287,0.378,0.162,0.558c-0.125,0.179-0.402,0.216-0.612,0.093
							c-0.05-0.029-5.131-3.029-10.243-2.128C60.447,383.433,60.383,383.431,60.321,383.418z"/>
					</g>
					<g>
						<path style="fill:#263238;" d="M60.81,379.822c-0.166-0.035-0.311-0.151-0.364-0.306c-0.074-0.218,0.058-0.43,0.294-0.475
							c6.048-1.16,10.962,2.122,11.167,2.262c0.206,0.14,0.261,0.392,0.123,0.563c-0.138,0.172-0.421,0.197-0.622,0.057
							c-0.045-0.032-4.774-3.177-10.402-2.099C60.94,379.837,60.873,379.836,60.81,379.822z"/>
					</g>
					<g>
						<path style="fill:#263238;" d="M61.377,375.785c-0.163-0.035-0.307-0.148-0.362-0.301c-0.076-0.216,0.051-0.43,0.287-0.479
							c5.671-1.168,11.018,2.235,11.242,2.382c0.21,0.134,0.271,0.386,0.138,0.561c-0.132,0.175-0.408,0.21-0.618,0.071
							c-0.052-0.033-5.217-3.318-10.483-2.233C61.512,375.8,61.443,375.799,61.377,375.785z"/>
					</g>
				</g>
			</g>
			<g>
				<path id="XMLID_00000087396086452404801680000011532044511488397467_" style="fill:#37474F;" d="M68.106,238.211
					c-5.312,13.016-1.826,30.434-2.366,44.622c-0.645,16.974-0.946,30.281-0.946,30.281c-0.205,2.282-1.505,5.478-2.564,16.737
					c-1.117,11.878-1.075,28.835-1.075,28.835s10.041,4.287,16.281,2.072c0,0,6.706-25.436,9.951-39.425
					c3.071-13.239,5.332-33.941,5.332-33.941l3.645,19.944c0,0-0.458,8.568-0.244,14.565c0.25,6.975,4.015,33.679,4.015,33.679
					s9.329,5.587,15.82,0.261c0,0,3.16-39.195,3.37-47.584c0.413-16.455,0.885-48.819-1.06-70.046H68.106z"/>
				<path id="XMLID_00000008846477133159883980000011500543991449435277_" style="fill:#263238;" d="M92.72,287.391l4.156-26.091
					c0,0,8.991-1.5,12.875-5.238c0,0-2.904,5.781-10.035,7.693l-4.36,24.163l1.008,19.417L92.72,287.391z"/>
			</g>
			<path style="fill:#455A64;" d="M60.984,359.266c2.804,2.199,10.97,4.073,16.559,2.052l1.126-4.719
				c-4.219,1.421-12.91,0.52-17.589-2.367L60.984,359.266z"/>
			<path style="fill:#455A64;" d="M100.136,356.129c1.892,1.918,10.662,3.507,15.842,0.472l0.383-4.736
				c-3.927,2.188-12.951,1.814-16.799-0.432L100.136,356.129z"/>
			<g>
				<path style="fill:#455A64;" d="M65.448,285.162c0,0-0.87,21.152-0.81,22.692c0.06,1.54,11.557,4.586,11.856,3.607
					c0.496-1.63,0.372-5.266,1.365-22.788C68.325,287.441,65.448,285.162,65.448,285.162z"/>
				<path style="fill:#37474F;" d="M76.065,294.703c-0.346-0.116-0.724-0.081-1.085-0.09c-0.422-0.011-0.843-0.029-1.264-0.064
					c-0.89-0.074-1.775-0.211-2.648-0.406c-0.986-0.221-1.958-0.52-2.903-0.882c-0.77-0.295-1.5-0.694-2.271-0.983
					c-0.073-0.027-0.085,0.113-0.038,0.147c0.73,0.534,1.598,0.901,2.429,1.235c0.782,0.315,1.584,0.57,2.4,0.773
					c0.869,0.216,1.752,0.374,2.641,0.469c0.444,0.048,0.891,0.08,1.337,0.097c0.422,0.016,1.026,0.112,1.407-0.1
					C76.13,294.866,76.137,294.727,76.065,294.703z"/>
				<path style="fill:#37474F;" d="M71.063,291.75c-0.11-0.217-0.195-0.353-0.443-0.382c-0.202-0.023-0.412,0.027-0.579,0.147
					c-0.157,0.114-0.262,0.286-0.286,0.479c-0.041,0.331,0.13,0.637,0.412,0.795c0.244,0.137,0.589,0.158,0.823-0.014
					c0.154-0.113,0.198-0.297,0.2-0.483C71.192,292.108,71.147,291.915,71.063,291.75z M70.845,292.396
					c-0.127,0.172-0.402,0.21-0.579,0.108c-0.293-0.169-0.233-0.738,0.126-0.776c0.113-0.012,0.231,0.014,0.322,0.084
					C70.866,291.931,70.973,292.222,70.845,292.396z"/>
			</g>
		</g>
		<g id="Top_00000061449141949380468320000003694386730798447036_">
			<path style="fill:#FFBDA7;" d="M104.132,183.128c5.79,1.044,8.597,2.521,12.948,9.502c4.351,6.98,13.193,26.909,13.193,26.909
				l18.968,14.557l-11.435,5.138c0.332,0.477-2.699-0.683-10.282-4.775c-6.741-3.638-7.319-3.652-11.743-11.338
				c-3.931-6.83-9.788-16.719-9.788-16.719L104.132,183.128z"/>
			<g>
				<path style="fill:#37474F;" d="M66.353,192.996L66.353,192.996c7.918,0,14.336-6.419,14.336-14.336v-35.786h-2.377
					c-6.605,0-11.959,5.354-11.959,11.959V192.996z"/>
				<g>
					<path style="fill:#BA68C8;" d="M73.421,147.375c-0.192,0.593-0.321,1.208-0.384,1.826c-0.04,0.398-0.056,0.8-0.002,1.195
						c0.252,1.861,2.092,3.225,3.933,3.254c1.841,0.029,3.581-1.062,4.734-2.535c1.533-1.96,3.822-6.577,0.84-8.218
						c-1.956-1.077-4.499-0.785-6.328,0.523C74.886,144.371,73.932,145.798,73.421,147.375z"/>
					<path style="opacity:0.25;" d="M73.421,147.375c-0.192,0.593-0.321,1.208-0.384,1.826c-0.04,0.398-0.056,0.8-0.002,1.195
						c0.252,1.861,2.092,3.225,3.933,3.254c1.841,0.029,3.581-1.062,4.734-2.535c1.533-1.96,3.822-6.577,0.84-8.218
						c-1.956-1.077-4.499-0.785-6.328,0.523C74.886,144.371,73.932,145.798,73.421,147.375z"/>
				</g>
			</g>
			<path style="fill:#455A64;" d="M72.599,224.111c-0.332,1.461-3.813,9.031-5.891,17.15c12.492,16.104,49.488,7.317,52.195-1.746
				c-0.582-10.771-1.079-37.972-3.438-42.892c-4.22-8.799-11.332-13.496-11.332-13.496c-3.362-0.713-6.872-0.944-7.892-1.048
				c-2.07-0.21-6.339-0.739-11.832,0.303c-2.56,0.486-6.622,1.515-10.709,3.219c-4.332,1.807-5.297,7.588-3.89,16.998
				C70.456,206.922,74.908,213.952,72.599,224.111z"/>
			<g id="_x34__00000111161076695841070160000005875332288916918457_">
				<polygon style="fill:#BA68C8;" points="170.011,194.78 158.608,184.941 167.29,139.384 150.435,124.839 137.303,129.415 
					131.224,161.312 118.485,150.32 164.407,76.233 146.286,60.598 133.155,65.173 84.045,143.938 80.689,161.545 124.049,198.96 
					119.025,225.324 135.881,239.868 149.012,235.293 151.433,222.589 152.308,223.343 165.439,218.768 				"/>
				<polygon style="opacity:0.3;" points="170.011,194.78 158.608,184.941 167.29,139.384 150.435,124.839 137.303,129.415 
					131.224,161.312 118.485,150.32 164.407,76.233 146.286,60.598 133.155,65.173 84.045,143.938 80.689,161.545 124.049,198.96 
					119.025,225.324 135.881,239.868 149.012,235.293 151.433,222.589 152.308,223.343 165.439,218.768 				"/>
				<g id="_x34__00000176038080462483497860000003713991766002905272_">
					<g>
						<polygon style="fill:#BA68C8;" points="145.477,189.516 154.159,143.959 137.303,129.415 128.621,174.972 105.354,154.895 
							151.275,80.809 133.155,65.173 84.045,143.938 80.689,161.546 124.05,198.96 119.025,225.324 135.881,239.868 
							140.905,213.504 152.308,223.343 156.88,199.355 						"/>
						<polygon style="opacity:0.3;fill:#FFFFFF;" points="145.477,189.516 154.159,143.959 137.303,129.415 128.621,174.972 
							105.354,154.895 151.275,80.809 133.155,65.173 84.045,143.938 80.689,161.546 124.05,198.96 119.025,225.324 
							135.881,239.868 140.905,213.504 152.308,223.343 156.88,199.355 						"/>
					</g>
				</g>
				<polygon style="fill:#BA68C8;" points="133.155,65.173 151.275,80.809 164.407,76.233 146.286,60.598 				"/>
				<polygon style="opacity:0.5;fill:#FFFFFF;" points="133.155,65.173 151.275,80.809 164.407,76.233 146.286,60.598 				"/>
				<polygon style="fill:#BA68C8;" points="137.303,129.415 150.435,124.839 167.29,139.384 154.159,143.959 				"/>
				<polygon style="opacity:0.5;fill:#FFFFFF;" points="137.303,129.415 150.435,124.839 167.29,139.384 154.159,143.959 				"/>
				<polygon style="fill:#BA68C8;" points="145.477,189.516 158.608,184.941 170.011,194.78 156.88,199.355 				"/>
				<polygon style="opacity:0.5;fill:#FFFFFF;" points="145.477,189.516 158.608,184.941 170.011,194.78 156.88,199.355 				"/>
				<polygon style="fill:#BA68C8;" points="105.354,154.895 118.485,150.32 131.224,161.312 128.621,174.972 				"/>
				<polygon style="opacity:0.5;fill:#FFFFFF;" points="105.354,154.895 118.485,150.32 131.224,161.312 128.621,174.972 				"/>
			</g>
			<g>
				<path style="fill:#FFBDA7;" d="M137.433,194.929c-0.977-0.273,1.282-4.114,0.798-6.63c-0.24-1.247-1.78-2.403-2.333-0.729
					c-1.158,3.508-2.687,4.787-3.707,6.898"/>
				<g>
					<g>
						<path style="fill:#FFBDA7;" d="M132.191,194.468c-1.02,2.111-2.137,3.539-5.024,5.572c-3.066,2.158-21.144,5.964-21.144,5.964
							s-4.278-2.538-11.556-7.406c-9.224-6.169-17.87-13.524-20.767-12.995c-9.137,2.604-6.992,15.927-3.443,18.909
							c2.341,1.967,5.043,3.757,14.522,8.833c10.271,5.499,11.766,5.708,14.774,6.981c5.315,2.251,6.418,1.802,13.11-0.57
							s10.632-4.46,19.528-8.864c4.513-2.235,6.16-3.825,9.564-6.11c1.689-1.134,2.594-1.946,3.503-3.035
							c0.909-1.089,1.647-2.352,1.937-3.741c0.055-0.261,0.071-0.513,0.2-0.75c0.122-0.226,0.273-0.435,0.427-0.641
							c0.291-0.39,0.607-0.774,0.776-1.236c0.179-0.49,0.18-1.019,0.259-1.529c0.037-0.238,0.035-0.472,0.102-0.707
							c0.068-0.238,0.168-0.466,0.277-0.688c0.283-0.572,0.636-1.153,0.701-1.797c0.061-0.6-0.378-0.904-0.378-0.904
							s0.483-0.681,0.635-0.922c0.213-0.337,0.389-0.698,0.523-1.074c0.053-0.148,0.098-0.32,0.017-0.455
							c-0.048-0.079-0.13-0.13-0.212-0.172c-1.313-0.678-2.576,0.14-3.605,0.934c-2.679,2.067-3.927,3.922-6.836,5.693
							c-1.582,0.963-1.987,1.182-2.649,1.17"/>
						<path style="fill:#F0997A;" d="M149.533,189.937c-0.462,0.709-0.988,1.372-1.516,2.03c-0.526,0.66-1.074,1.299-1.604,1.951
							c-0.269,0.32-0.521,0.659-0.81,0.977c-0.288,0.314-0.581,0.62-0.891,0.909c-0.612,0.585-1.244,1.146-1.91,1.667l0.869-0.92
							c0.293-0.303,0.583-0.607,0.867-0.917c0.281-0.312,0.571-0.616,0.839-0.936c0.272-0.312,0.521-0.651,0.791-0.98
							c0.54-0.652,1.095-1.287,1.664-1.909L149.533,189.937z"/>
						<path style="fill:#F0997A;" d="M148.99,193.04c-0.243,0.605-0.555,1.212-0.91,1.756c-0.355,0.546-0.739,1.071-1.135,1.586
							c-0.401,0.511-0.813,1.014-1.248,1.497c-0.433,0.484-0.887,0.953-1.383,1.376c0.407-0.508,0.794-1.025,1.194-1.534
							l1.188-1.532l1.184-1.534C148.266,194.138,148.639,193.588,148.99,193.04z"/>
					</g>
				</g>
			</g>
			<g>
				<g id="Head_00000041259930596052530550000004087576041417594019_">
					<path style="fill:#37474F;" d="M107.663,163.1l1.172-0.361c5.266-2.828,5.001-9.697,3.722-13.277
						c-2.855-7.991-11.491-10.982-16.835-11.274c-10.134-0.554-15.083,2.063-16.129,7.313c-1.373-0.116-3.26,0.989-4.399,2.54
						c-2.493,3.393-5.457,15.214,7.68,27.682L107.663,163.1z"/>
					<g id="XMLID_00000167354539174059435210000006240205408302933407_">
						<g id="XMLID_00000039830162796333418130000007861564266307790234_">
							<path id="XMLID_00000095320664042384293510000001918730369386611631_" style="fill:#FFBDA7;" d="M80.432,171.757
								c-1.835,0.27-3.251-0.691-4.309-1.951c-2.348-2.797-2.468-5.555-1.252-7.341c0.999-1.467,3.354-2.337,4.939-1.256
								c1.694,1.157,1.714,2.047,2.322,3.303c0.624,1.289,3.151,1.247,3.951-3.69c0.747-4.605,0.537-9.443,2.883-11.444
								c3.503-2.987,7.102-1.956,8.379-0.061c1.465-2.104,4.628-2.253,6.89-0.924c1.654,0.972,3.376,2.513,3.19,7.698
								c-0.057,1.596,1.01,4.587,1.125,6.83c0.461,8.982-1.027,11.202-3.422,13.376c-1.43,1.298-3.692,2.159-7.056,2.18l0.12,4.586
								c0,0,4.097,5.973,4.24,8.922l-19.276-9.157l-0.472-12.392C82.685,170.435,82.176,171.5,80.432,171.757z"/>
						</g>
						<g>
							<g id="XMLID_00000103248032830380764680000010514194333853361287_">
								<path id="XMLID_00000075151378092642637730000013780401570928952500_" style="fill:#263238;" d="M103.269,153.112
									l2.648,2.342c-0.624,0.762-1.723,0.855-2.454,0.207C102.732,155.014,102.645,153.873,103.269,153.112z"/>
							</g>
							<g id="XMLID_00000070835550745099874860000014783791833598755740_">
								<path id="XMLID_00000095309930185450578240000016366696786800506298_" style="fill:#263238;" d="M94.172,156.045
									l-3.269,1.903c-0.564-0.89-0.289-2.038,0.614-2.563C92.419,154.86,93.608,155.156,94.172,156.045z"/>
							</g>
							<path style="fill:#37474F;" d="M88.994,149.975c-0.793,1.006-1.372,2.017-1.252,5.627c0.05,1.504-0.063,5.01-1.07,7.101
								c-0.881,1.829-1.796,2.916-3.744,3.257c-0.974,0.171-2.619,0.061-3.516-0.355c-0.691-0.32-2.632-1.688-2.396-3.696
								c0.31,0.347,0.876,0.787,1.424,1.004c0.413,0.163,0.847,0.285,1.29,0.309c1.32,0.073,2.577-0.744,3.317-1.84
								c1.31-1.94,1.223-4.557,1.623-6.783c0.509-2.829,1-6.038,3.553-7.44c3.018-1.657,8.467-0.921,9.122,2.158
								C95.283,147.348,91.037,147.385,88.994,149.975z"/>
							<g id="XMLID_00000119839732964713902200000015053623680021718959_">
								<polygon id="XMLID_00000170962285552930317330000002902767820037601924_" style="fill:#F0997A;" points="98.804,158.286 
									99.845,167.078 104.615,165.222 								"/>
							</g>
							<path style="fill:#263238;" d="M95.769,161.053c0,0.764-0.619,1.383-1.383,1.383c-0.764,0-1.384-0.619-1.384-1.383
								s0.619-1.383,1.384-1.383C95.149,159.669,95.769,160.288,95.769,161.053z"/>
							<circle style="fill:#263238;" cx="104.236" cy="159.669" r="1.383"/>
							<g>
								<path style="fill:#B16668;" d="M98.993,169.846c0,0.764-0.619,1.384-1.383,1.384s-1.383-0.619-1.383-1.384
									c0-0.764,0.619-1.383,1.383-1.383S98.993,169.082,98.993,169.846z"/>
								<path style="fill:#F28F8F;" d="M96.276,169.499c-0.029,0.112-0.049,0.227-0.049,0.347c0,0.764,0.62,1.383,1.384,1.383
									c0.346,0,0.659-0.132,0.902-0.342C98.027,170.127,97.217,169.605,96.276,169.499z"/>
							</g>
							<g id="XMLID_00000145034618046863658140000002560083963756864173_">
								<path id="XMLID_00000010993301906442350400000017116912824110257837_" style="fill:#F0997A;" d="M98.073,178.477
									c-3.901-0.147-7.463-0.791-9.675-2.152c-1.022-0.629-2.872-2.144-4.064-4.395c0,0,0.2,3.793,3.673,6.244
									c3.514,2.481,10.122,2.901,10.122,2.901L98.073,178.477z"/>
							</g>
						</g>
					</g>
				</g>
			</g>
			<g>
				<path style="fill:#FFBDA7;" d="M151.335,236.848c2.023-0.013,2.136-0.23,2.441-1.239c0.305-1.009,0.586-2.976-0.73-4.679
					c-0.884-1.145-1.72-2.343-2.47-2.721c-0.75-0.378-1.646,1.058-0.881,2.831c1.206,2.794,0.542,3.253,0.542,3.253
					s-1.113-2.572-1.709-3.497c-0.596-0.925-2.196-2.24-3.092-3.137c-0.896-0.897-2.348-0.148-1.551,1.896
					c0,0-1.133-1.13-1.645-1.641c-1.152-1.149-2.165-1.089-2.228,0.516c-0.015,0.381,0.008,0.878,0.413,1.498
					c0,0-1.004-1.386-1.485-1.08c-1.38,0.876-1.104,1.983,0.115,5.371c1.038,2.884,0.635,4.355-0.509,4.794l-0.741,0.217
					c0,0,1.406,0.62,2.762,1.097c0.993,0.349,1.969,0.548,2.833-0.562c0,0,1.078,1.546,2.088,0.954
					c1.01-0.591,1.753-1.836,1.753-1.836s1.091,0.574,2.174-0.296c1.083-0.87,1.254-1.758,1.254-1.758L151.335,236.848z"/>
				<path style="fill:#F0997A;" d="M143.886,229.557c0.491,0.499,0.995,0.935,1.407,1.553c0.391,0.655,0.509,1.348,0.668,2.009
					c0.278,1.343,0.512,2.697,0.562,4.084c-0.522-1.291-0.861-2.615-1.155-3.95c-0.145-0.667-0.248-1.351-0.491-1.918
					C144.594,230.772,144.179,230.18,143.886,229.557z"/>
				<path style="fill:#F0997A;" d="M140.425,229.93c0.593,0.454,1.075,1.089,1.38,1.785c0.323,0.689,0.53,1.414,0.714,2.135
					c0.34,1.448,0.576,2.913,0.608,4.41c-0.505-1.408-0.846-2.842-1.198-4.266C141.573,232.568,141.284,231.163,140.425,229.93z"/>
			</g>
		</g>
	</g>
</g>
</svg>
